<?xml version="1.0" encoding="UTF-8"?>
<svg id="Layer_1" xmlns="http://www.w3.org/2000/svg" version="1.1" viewBox="0 0 800 800" className="fill-primary dark:fill-secondary">
  <g>
    <path  d="M334.1,511.2c-12.3,0-22.3-9.9-22.3-22.3v-65.2c0-12.3,9.9-22.3,22.3-22.3s22.3,9.9,22.3,22.3v65.2c0,12.4-10.1,22.3-22.3,22.3Z"/>
    <path  d="M465.8,511.2c-12.3,0-22.3-9.9-22.3-22.3v-65.2c0-12.3,9.9-22.3,22.3-22.3s22.3,9.9,22.3,22.3v65.2c-.1,12.4-10.1,22.3-22.3,22.3Z"/>
  </g>
  <path className="opacity-[0.6]" d="M567.7,227.9c-4.7-.7-64-11.2-119.2,51.5l-10,10.7c-20.9,22.3-56.4,22.3-77.2,0l-10-10.8c-31.5-33.7-68.6-52.4-104.3-52.4s-45.3-7.2-83,37.7h75.8c12.5,0,23.1,10.1,22.8,22.7-.3,12.1-10,21.7-22.3,21.7h-108.2c-5,9.8-9.5,20-13.4,30.8h58.9c12.5,0,23.1,10.1,22.8,22.7-.3,12.1-10,21.7-22.3,21.7h-71.4c-6.3,34-7.4,70.5-2.4,107.1,17.1,123.3,96.2,219.9,180.1,219.9s34,0,56.5-16.2c16.9-12.1,38.1-16.7,58.9-16.7s41.2,5.5,58.9,16.6c29.9,19.1,51.8,16.3,56.7,16.3,83.9,0,163-96.6,180.1-219.9,18.2-130.8-40.4-251.5-127.7-263.4Z"/>
  <path d="M580.1,139.8c-52.6-7.4-106.7,7.8-154.2,41.8,8.2-39.7,31.6-96.2,97.8-141,10-7,12.8-20.8,5.9-30.8-7-10.1-20.7-12.8-30.8-5.9-85.6,58.1-111.5,132.9-118.7,181.7-48.9-36.9-105.4-54.3-159.8-45.9C41.9,168-3.5,379,16.4,503.4c27.1,168.5,138.7,296.6,268.3,296.6,38.7.1,72.6-11.2,103.2-29.5,7.4-4.6,17.1-4.6,24.5,0,32.8,19.9,67.2,29.5,103.2,29.5,129.5,0,244.8-127.5,268.3-296.6,25-181.6-66.3-344.7-203.7-363.6ZM739.6,497.4c-20.2,144.9-118.6,258.2-224.1,258.2-27.7.7-54.2-8.2-79.8-22.8-21.2-13.4-44.9-13.4-71.1,0-23.6,14.4-49.9,22.7-79.8,22.8-105.5,0-204.1-113.4-224.1-258.2-20.8-160.3,52.2-295.1,165.8-313.4,54.8-7.5,111.9,16.1,157.7,65.1,9.9,9.5,23.2,8.7,32.4,0,46-49,102.9-72.7,157.7-65.1,112.9,15.5,187.2,156.3,165.5,313.4Z"/>
</svg>