<?xml version="1.0" encoding="UTF-8"?>
<svg id="Layer_2" data-name="Layer 2" xmlns="http://www.w3.org/2000/svg" viewBox="0 0 209.69 223.69">
  <g id="Designs">
    <g>
      <path d="M3.31,105.72c-.11,0-.23,0-.34-.02-1.81-.19-3.13-1.81-2.95-3.63C4.47,59.06,25.87,46.29,58.02,31.72c27.51-12.47,23.54-26.81,23.36-27.41-.52-1.73.43-3.58,2.15-4.13,1.72-.55,3.56.37,4.13,2.08.28.83,6.36,20.4-26.91,35.48C29.89,51.72,10.77,62.34,6.59,102.76c-.18,1.7-1.61,2.96-3.28,2.96Z"/>
      <path d="M48.15,223.69c-.35,0-.7-.05-1.04-.17-1.73-.57-2.67-2.44-2.1-4.18.1-.29,9.81-29.59,14.09-45.28,3.27-11.98-1.54-68.06-4.08-92.9-8.69,3.05-16.65,16.92-19.21,22.6-.75,1.66-2.71,2.4-4.37,1.65-1.66-.75-2.4-2.71-1.65-4.37,1.22-2.72,12.42-26.55,28.04-27.08,1.73-.07,3.22,1.23,3.4,2.95.36,3.36,8.72,82.52,4.25,98.88-4.32,15.86-14.09,45.32-14.19,45.62-.46,1.39-1.75,2.26-3.13,2.26Z"/>
      <path d="M206.39,105.72c-1.67,0-3.11-1.26-3.28-2.96-4.18-40.42-23.31-51.04-54.16-65.02C115.67,22.66,121.76,3.08,122.03,2.26c.58-1.73,2.45-2.66,4.18-2.09,1.72.57,2.65,2.42,2.1,4.14-.21.69-4.06,14.98,23.36,27.41,32.15,14.57,53.56,27.34,58.01,70.36.19,1.82-1.13,3.44-2.95,3.63-.12.01-.23.02-.34.02Z"/>
      <path d="M161.54,223.69c-1.38,0-2.67-.88-3.13-2.26-.1-.3-9.86-29.76-14.19-45.62-4.46-16.37,3.9-95.52,4.25-98.88.18-1.72,1.66-3.03,3.4-2.95,15.62.54,26.81,24.37,28.04,27.08.75,1.66.01,3.62-1.65,4.37-1.66.75-3.62.01-4.37-1.65-2.57-5.68-10.54-19.55-19.22-22.6-2.54,24.84-7.35,80.91-4.08,92.9,4.28,15.69,13.99,44.98,14.09,45.28.57,1.73-.36,3.6-2.1,4.18-.35.11-.7.17-1.04.17Z"/>
    </g>
  </g>
</svg>