<?xml version="1.0" encoding="UTF-8"?>
<svg id="Layer_2" data-name="Layer 2" xmlns="http://www.w3.org/2000/svg" viewBox="0 0 440.69 522.85">
  <defs>
    <style>
      .cls-1 {
        fill: #404040;
      }
    </style>
  </defs>
  <g id="Layer_1-2" data-name="Layer 1">
    <g>
      <path class="cls-1" d="M253.02,87.03H66.54c-2.53,0-5.07-.04-7.6,0-.11,0-.22,0-.33,0l9,9v-58.38c0-3.23-.21-6.57.18-9.79l-.32,2.39c.26-1.89.74-3.73,1.46-5.5l-.91,2.15c.73-1.72,1.65-3.32,2.77-4.82l-1.41,1.82c1.2-1.55,2.58-2.93,4.13-4.13l-1.82,1.41c1.49-1.12,3.1-2.04,4.82-2.77l-2.15.91c1.77-.72,3.6-1.2,5.5-1.46l-2.39.32c2.08-.25,4.19-.18,6.28-.18h129.91c5.88,0,11.77-.03,17.65,0,.96,0,1.92.06,2.87.18l-2.39-.32c1.89.26,3.73.74,5.5,1.46l-2.15-.91c1.72.73,3.32,1.65,4.82,2.77l-1.82-1.41c1.55,1.2,2.93,2.58,4.13,4.13l-1.41-1.82c1.12,1.49,2.04,3.1,2.77,4.82l-.91-2.15c.72,1.77,1.2,3.6,1.46,5.5l-.32-2.39c.33,2.74.18,5.57.18,8.32v59.85c0,4.71,4.14,9.22,9,9s9-3.95,9-9v-30.33c0-11.53.01-23.05,0-34.58s-5.79-21.73-15.59-27.17C241.19,1.03,235.48,0,229.57,0c-8.42,0-16.83,0-25.25,0-14.34,0-28.68,0-43.02,0h-75.58c-1.81,0-3.63-.01-5.44,0-5.41.03-10.83,1.44-15.51,4.18-6.27,3.67-10.73,9.38-13.33,16.09-1.94,5.01-1.83,10.29-1.83,15.54v18.74c0,13.03,0,26.06,0,39.09v2.38c0,4.87,4.12,9,9,9h186.48c2.53,0,5.07.03,7.6,0,.11,0,.22,0,.33,0,4.71,0,9.22-4.14,9-9s-3.95-9-9-9Z"/>
      <path class="cls-1" d="M310.77,284c-.01-8.25-.03-16.5-.04-24.75-.02-14.33-.05-28.67-.07-43-.02-11.03.58-22.26-2.2-33.04-3.12-12.09-9.8-23.44-18.91-31.99-4.52-4.24-9.67-7.6-14.81-11.02-10.16-6.77-20.32-13.55-30.49-20.32-.58-.39-1.16-.79-1.73-1.21l1.82,1.41c-1.59-1.23-3-2.63-4.25-4.2l1.41,1.82c-1.29-1.67-2.35-3.48-3.18-5.42l.91,2.15c-.81-1.97-1.35-4-1.64-6.1l.32,2.39c-.31-2.6-.19-5.26-.19-7.88v-6.82c0-4.71-4.14-9.22-9-9s-9,3.95-9,9c0,5.76-.29,11.56.54,17.28.9,6.2,4.02,11.98,8.19,16.59,2.04,2.26,4.53,4.08,7.05,5.76,9.23,6.15,18.46,12.31,27.69,18.46,3.78,2.52,7.68,4.93,11.28,7.7l-1.82-1.41c3.86,3.01,7.32,6.47,10.33,10.33l-1.41-1.82c3.11,4.03,5.69,8.43,7.68,13.12l-.91-2.15c1.98,4.73,3.33,9.67,4.05,14.75l-.32-2.39c.61,4.58.55,9.17.55,13.77.01,6.5.02,13,.03,19.5.01,8.34.03,16.68.04,25.03.01,7.44.03,14.88.04,22.32,0,3.66-.05,7.32.02,10.97,0,.05,0,.11,0,.17,0,4.71,4.13,9.22,9,9s9.01-3.95,9-9h0Z"/>
      <path class="cls-1" d="M73.91,96.03v7.68c0,1.25,0,2.51,0,3.76,0,.61-.01,1.22-.06,1.82-.02.24-.15.71-.08.95-.02-.06.34-1.8.1-.83-.2.81-.33,1.63-.56,2.44-.17.6-.41,1.18-.59,1.77-.28.93.26-.67.31-.71-.16.13-.31.65-.4.84-.28.56-.58,1.1-.9,1.63-.29.47-1.12,1.29-1.21,1.81.01-.08,1.11-1.29.44-.6-.22.22-.41.48-.62.7-.42.46-.87.91-1.32,1.33-.05.05-.78.81-.95.83-.02,0,1.43-1.01.57-.43-.27.18-.53.38-.8.56-.96.66-1.94,1.29-2.91,1.94-10.15,6.76-20.3,13.53-30.44,20.29-5.58,3.72-11.01,7.64-15.55,12.61-7.85,8.59-13.64,19.2-16.2,30.59-1.52,6.78-1.73,13.53-1.76,20.4s-.05,13.07-.07,19.61c-.04,10.25-.08,20.49-.11,30.74-.05,12.74-.09,25.49-.14,38.23-.05,14.02-.1,28.05-.16,42.07l-.16,42.27c-.05,12.94-.1,25.88-.14,38.82-.04,10.57-.08,21.15-.12,31.72-.03,6.99-.05,13.98-.08,20.98-.02,4.93-.05,9.63.68,14.55,3.26,22.03,23.56,38.3,45.48,38.44,4.08.03,8.16,0,12.24,0,10.1,0,20.2,0,30.3,0,13.49,0,26.99,0,40.48,0h42.16c11.98,0,23.95,0,35.93,0,7.2,0,14.41,0,21.61,0h2.92c4.71,0,9.22-4.14,9-9s-3.95-9-9-9H49.8c-1.21,0-2.41,0-3.62,0-.3,0-.6,0-.91-.01-.58-.01-1.16-.04-1.74-.08-.29-.02-.58-.04-.86-.07-.19-.02-2.12-.24-.51-.04,1.5.18-.41-.1-.77-.16-.55-.11-1.11-.23-1.66-.36-1.18-.29-2.34-.63-3.49-1.03-.37-.13-1.18-.63-1.56-.59,0,0,1.72.8.88.37-.24-.13-.5-.23-.75-.34-1.16-.55-2.29-1.16-3.39-1.82-.94-.57-1.83-1.2-2.73-1.83-1.33-.93,1.31,1.14.1.06-.48-.42-.97-.82-1.44-1.26-.8-.74-1.57-1.51-2.31-2.32-.37-.4-.72-.82-1.08-1.23-1.31-1.51.73,1.09-.1-.11-1.36-1.96-2.61-3.96-3.63-6.12-.12-.25-.22-.51-.34-.75-.42-.85.37.87.37.88.07-.33-.47-1.23-.58-1.56-.4-1.15-.74-2.31-1.02-3.49-.15-.64-.29-1.29-.41-1.93-.05-.28-.09-.56-.14-.84-.2-.99.12,1.02.12.98-.01-1.25-.24-2.5-.26-3.75-.02-.96,0-1.91,0-2.87.02-5.11.04-10.23.06-15.34.03-9.17.07-18.33.1-27.5.04-11.96.09-23.91.13-35.87.05-13.67.1-27.34.15-41.01s.1-28.27.16-42.4c.05-13.4.1-26.8.15-40.2.04-11.47.08-22.94.13-34.41.03-8.34.06-16.68.09-25.02.01-4.01.03-8.02.04-12.03,0-.19,0-.37,0-.56,0-1.16.04-2.33.1-3.49.04-.63.09-1.26.14-1.89.03-.31.06-.63.09-.94.11-1.21.03.02-.09.52.63-2.63.94-5.31,1.69-7.93.34-1.19.72-2.37,1.14-3.54.21-.58.43-1.16.65-1.74.54-1.43-.68,1.49.17-.41,1.06-2.35,2.27-4.63,3.62-6.82.71-1.14,1.45-2.25,2.24-3.34.19-.26,1.38-1.86.6-.82s.61-.72.86-1.02c1.68-1.98,3.49-3.85,5.42-5.59.98-.89,2.24-1.66,3.13-2.63-.03.03-1.38,1.01-.56.45.26-.18.51-.38.77-.56.52-.37,1.04-.73,1.57-1.08.23-.16.46-.31.7-.46l4.73-3.15,16.37-10.91c4.45-2.97,8.9-5.93,13.35-8.9,7.67-5.12,13.88-12.4,15.52-21.74,1.05-5.97.68-12.12.68-18.16,0-4.71-4.14-9.22-9-9s-9,3.95-9,9h0Z"/>
      <path class="cls-1" d="M10.01,226.68c1.79,0,3.57-.01,5.36-.02l14.66-.06c7.19-.03,14.39-.06,21.58-.09,8.76-.04,17.52-.07,26.29-.11,9.62-.04,19.24-.08,28.87-.12,9.65-.04,19.29-.08,28.94-.12,8.96-.04,17.92-.07,26.88-.11,7.52-.03,15.04-.06,22.57-.09,5.33-.02,10.67-.04,16-.07,2.4,0,4.79-.03,7.19-.03.98,0,1.96.06,2.94.18l-2.39-.32c1.78.26,3.5.73,5.16,1.43l-2.15-.91c1.51.66,2.92,1.49,4.24,2.48l-1.82-1.41c1.38,1.07,2.61,2.29,3.68,3.67l-1.41-1.82c1.06,1.4,1.94,2.91,2.63,4.53l-.91-2.15c.63,1.57,1.07,3.18,1.32,4.85l-.32-2.39c.29,2.26.19,4.59.19,6.87v163.43c0,2.11.01,4.22,0,6.32,0,.98-.07,1.95-.19,2.92l.32-2.39c-.25,1.68-.69,3.3-1.33,4.87l.91-2.15c-.69,1.63-1.58,3.14-2.65,4.55l1.41-1.82c-1.02,1.29-2.17,2.45-3.46,3.48l1.82-1.41c-1.4,1.08-2.91,1.97-4.54,2.67l2.15-.91c-1.68.69-3.41,1.15-5.21,1.4l2.39-.32c-2.37.28-4.81.17-7.19.18-4.72.02-9.44.04-14.16.06-7.07.03-14.14.06-21.21.09-8.69.04-17.37.07-26.06.11-9.59.04-19.19.08-28.78.12s-19.33.08-29,.12c-9.03.04-18.06.07-27.08.11-7.64.03-15.28.06-22.92.09l-16.51.07c-2.62.01-5.24,0-7.86.03-.11,0-.22,0-.33,0-4.71.02-9.22,4.13-9,9s3.95,9.02,9,9c3.96-.02,7.92-.03,11.89-.05,10.14-.04,20.28-.08,30.42-.13,13.66-.06,27.32-.11,40.98-.17,14.61-.06,29.21-.12,43.82-.18,12.96-.05,25.91-.11,38.87-.16,8.71-.04,17.42-.07,26.14-.11l5.88-.02c7.66-.03,14.83-2.7,20.48-7.93,5.99-5.54,9.02-13.55,9.02-21.61v-172.85c0-8.24-3.3-16.67-9.69-22.07-5.74-4.86-12.54-7.36-20.08-7.33-5.72.02-11.43.05-17.15.07-11.22.05-22.45.09-33.67.14-14.13.06-28.27.12-42.4.18s-28.88.12-43.32.18c-12.15.05-24.3.1-36.45.15-7.27.03-14.54.06-21.81.09-.97,0-1.95,0-2.92.01-4.71.02-9.22,4.13-9,9s3.95,9.02,9,9h0Z"/>
      <path class="cls-1" d="M89.39,38.29v27.19c0,4.71,4.14,9.22,9,9s9-3.95,9-9v-27.19c0-4.71-4.14-9.22-9-9s-9,3.95-9,9h0Z"/>
      <path class="cls-1" d="M127.67,38.29v27.19c0,4.71,4.14,9.22,9,9s9-3.95,9-9v-27.19c0-4.71-4.14-9.22-9-9s-9,3.95-9,9h0Z"/>
      <path class="cls-1" d="M165.96,38.29v27.19c0,4.71,4.14,9.22,9,9s9-3.95,9-9v-27.19c0-4.71-4.14-9.22-9-9s-9,3.95-9,9h0Z"/>
      <path class="cls-1" d="M204.25,38.29v27.19c0,4.71,4.14,9.22,9,9s9-3.95,9-9v-27.19c0-4.71-4.14-9.22-9-9s-9,3.95-9,9h0Z"/>
      <path class="cls-1" d="M265.79,465.26c0-1.97.14-3.93.39-5.88l-.32,2.39c.52-3.78,1.52-7.47,2.98-11l-.91,2.15c1.5-3.54,3.43-6.86,5.78-9.9l-1.41,1.82c2.28-2.92,4.9-5.54,7.82-7.82l-1.82,1.41c3.05-2.34,6.36-4.28,9.9-5.78l-2.15.91c3.53-1.46,7.21-2.46,11-2.98l-2.39.32c4.31-.56,8.71-.39,13.05-.39h71.11c3.48,0,6.97-.08,10.46.02,1.56.04,3.11.17,4.65.37l-2.39-.32c3.78.52,7.47,1.52,11,2.98l-2.15-.91c3.54,1.5,6.86,3.43,9.9,5.78l-1.82-1.41c2.92,2.28,5.54,4.9,7.82,7.82l-1.41-1.82c2.34,3.05,4.28,6.36,5.78,9.9l-.91-2.15c1.46,3.53,2.46,7.21,2.98,11l-.32-2.39c.51,3.91.51,7.85,0,11.76l.32-2.39c-.52,3.78-1.52,7.47-2.98,11l.91-2.15c-1.5,3.54-3.43,6.86-5.78,9.9l1.41-1.82c-2.28,2.92-4.9,5.54-7.82,7.82l1.82-1.41c-3.05,2.34-6.36,4.28-9.9,5.78l2.15-.91c-3.53,1.46-7.21,2.46-11,2.98l2.39-.32c-4.31.56-8.71.39-13.05.39h-71.11c-3.48,0-6.97.08-10.46-.02-1.56-.04-3.11-.17-4.65-.37l2.39.32c-3.78-.52-7.47-1.52-11-2.98l2.15.91c-3.54-1.5-6.86-3.43-9.9-5.78l1.82,1.41c-2.92-2.28-5.54-4.9-7.82-7.82l1.41,1.82c-2.34-3.05-4.28-6.36-5.78-9.9l.91,2.15c-1.46-3.53-2.46-7.21-2.98-11l.32,2.39c-.25-1.95-.38-3.91-.39-5.88-.02-4.71-4.13-9.22-9-9s-9.02,3.95-9,9c.02,5.98.98,12.12,3.08,17.73,2.28,6.1,5.38,11.41,9.52,16.43,7.25,8.8,18.02,15.21,29.19,17.43,4.96.98,9.85,1.16,14.86,1.16s10.31,0,15.47,0h61.61c2.76,0,5.52.07,8.28-.03,12.52-.49,24.3-5.32,33.65-13.63,8.53-7.58,14.7-18.51,16.49-29.8,1.05-6.64,1.04-12.95-.17-19.58-1.04-5.69-3.23-11.3-6.14-16.28s-6.58-9.48-10.91-13.15c-4.96-4.21-10.26-7.33-16.31-9.7-10.52-4.12-21.99-3.32-33.06-3.32h-43.75c-9.58,0-19.16,0-28.74,0s-19.78,2.67-28.14,7.94c-10.41,6.56-18.13,16.43-22.17,28.02-1.86,5.34-2.75,11.15-2.75,16.79,0,4.71,4.14,9.22,9,9s9-3.95,9-9Z"/>
      <path class="cls-1" d="M335.29,421.5v76.74c0,3.53-.07,7.07,0,10.6,0,.05,0,.11,0,.16,0,4.71,4.14,9.22,9,9s9-3.95,9-9v-76.74c0-3.53.07-7.07,0-10.6,0-.05,0-.11,0-.16,0-4.71-4.14-9.22-9-9s-9,3.95-9,9h0Z"/>
      <path class="cls-1" d="M312.63,386.76c-2.19-2.9-4.01-6.03-5.45-9.36l.91,2.15c-1.54-3.65-2.58-7.47-3.11-11.39l.32,2.39c-.49-3.87-.48-7.77.03-11.63l-.32,2.39c.54-3.86,1.57-7.62,3.08-11.22l-.91,2.15c1.47-3.43,3.35-6.65,5.61-9.61l-1.41,1.82c2.3-2.95,4.94-5.59,7.89-7.89l-1.82,1.41c1.34-1.03,2.69-1.88,3.51-3.45.74-1.41,1.23-2.93,1.23-4.54l-4.46,7.77c2.9-2.19,6.03-4.01,9.36-5.45l-2.15.91c3.65-1.54,7.47-2.58,11.39-3.11l-2.39.32c3.87-.49,7.77-.48,11.63.03l-2.39-.32c3.86.54,7.62,1.57,11.22,3.08l-2.15-.91c3.43,1.47,6.65,3.35,9.61,5.61l-1.82-1.41c2.95,2.3,5.59,4.94,7.89,7.89l-1.41-1.82c1.82,2.37,3.61,4.75,5.42,7.13,4.2,5.52,8.39,11.04,12.59,16.55,5.12,6.73,10.23,13.45,15.35,20.18,4.43,5.82,8.86,11.65,13.29,17.47,2.15,2.82,4.29,5.65,6.45,8.47.03.04.06.08.1.13,1.48,1.95,2.92,3.46,5.38,4.14,2.15.59,5.02.33,6.94-.91s3.61-3.08,4.14-5.38.52-5.06-.91-6.94c-3.27-4.29-6.53-8.59-9.8-12.88-6.84-9-13.69-17.99-20.53-26.99-6.09-8-12.18-16.01-18.27-24.01-1.38-1.81-2.76-3.63-4.14-5.44-1.55-2.04-3.1-4.07-4.87-5.92-3.27-3.43-7.13-6.45-11.21-8.85-16.42-9.67-37.67-9.63-53.98.29-.91.55-1.79,1.14-2.66,1.75-.39.28-.77.56-1.15.85-1.34,1.01-2.33,1.83-3.23,3.23-.81,1.26-1.23,3.07-1.23,4.54l4.46-7.77c-2.44,1.87-4.82,3.76-6.95,5.98s-3.94,4.55-5.66,7c-2.94,4.2-5.14,8.99-6.7,13.86-3.14,9.84-3.21,20.9-.23,30.78,1.72,5.71,4.39,11.23,7.98,15.99,1.47,1.95,2.93,3.46,5.38,4.14,2.15.59,5.02.33,6.94-.91s3.61-3.08,4.14-5.38.52-5.05-.91-6.94h0Z"/>
      <path class="cls-1" d="M396.44,365.37c-9.42,7.16-18.83,14.33-28.25,21.49-1.31.99-2.62,1.99-3.92,2.98-1.95,1.48-3.46,2.92-4.14,5.38-.59,2.15-.33,5.02.91,6.94s3.08,3.61,5.38,4.14,5.06.52,6.94-.91c9.42-7.16,18.83-14.33,28.25-21.49,1.31-.99,2.62-1.99,3.92-2.98,1.95-1.48,3.46-2.92,4.14-5.38.59-2.15.33-5.02-.91-6.94s-3.08-3.61-5.38-4.14-5.06-.52-6.94.91h0Z"/>
    </g>
  </g>
</svg>