<?xml version="1.0" encoding="UTF-8"?>
<svg id="Layer_1" xmlns="http://www.w3.org/2000/svg" xmlns:xlink="http://www.w3.org/1999/xlink" version="1.1" viewBox="0 0 1076 1080">
  <!-- Generator: Adobe Illustrator 29.1.0, SVG Export Plug-In . SVG Version: 2.1.0 Build 142)  -->
  <defs>
    <style>
      .st0, .st1, .st2, .st3, .st4 {
        fill: none;
      }

      .st1 {
        stroke-linecap: round;
        stroke-linejoin: round;
        stroke-width: 9px;
      }

      .st1, .st5, .st6 {
        stroke: #000;
      }

      .st7 {
        fill: #f2cfee;
      }

      .st7, .st5, .st8 {
        stroke-width: 3px;
      }

      .st7, .st5, .st8, .st6 {
        stroke-miterlimit: 10;
      }

      .st7, .st2, .st8 {
        stroke: #024059;
      }

      .st5 {
        fill: #d9f2d0;
      }

      .st5, .st8 {
        fill-rule: evenodd;
      }

      .st2, .st3, .st4 {
        stroke-miterlimit: 8;
        stroke-width: .2px;
      }

      .st8 {
        fill: #caeefb;
      }

      .st6 {
        stroke-width: 4px;
      }

      .st3 {
        stroke: #622c0f;
      }

      .st9 {
        clip-path: url(#clippath);
      }

      .st4 {
        stroke: #1c440d;
      }
    </style>
    <clipPath id="clippath">
      <rect class="st0" x="-1.6" width="1080" height="1080"/>
    </clipPath>
  </defs>
  <g class="st9">
    <circle class="st7" cx="538.4" cy="540" r="535.9"/>
    <circle class="st2" cx="538.4" cy="540" r="535.9"/>
    <path class="st8" d="M74,807.4C-73.7,550.9,14.5,223.3,271,75.6,352.4,28.8,444.6,4.1,538.4,4.1v535.9S74,807.4,74,807.4Z"/>
    <path class="st3" d="M74,807.4C-73.7,550.9,14.5,223.3,271,75.6,352.4,28.8,444.6,4.1,538.4,4.1v535.9S74,807.4,74,807.4Z"/>
    <path class="st5" d="M537.6,4.1c296-1.3,537,237.5,538.3,533.5.4,84.3-19.1,167.4-56.9,242.7l-479-240.3-2.4-535.9Z"/>
    <path class="st4" d="M537.6,4.1c296-1.3,537,237.5,538.3,533.5.4,84.3-19.1,167.4-56.9,242.7l-479-240.3-2.4-535.9Z"/>
  </g>
  <path class="st1" d="M672.9,411h76.7c7.2,0,13,5.8,13,13v91.2h-90.4c-6.8,0-12.3-5.5-12.3-12.3v-78.9c0-7.2,5.8-13,13-13Z"/>
  <line class="st1" x1="659.9" y1="435.9" x2="762.6" y2="435.9"/>
  <path class="st1" d="M711.2,338.5h0c18.5,0,33.5,15,33.5,33.5v38.9h-67.1v-38.9c0-18.5,15-33.5,33.5-33.5Z"/>
  <circle class="st1" cx="711.2" cy="378.7" r="12.5"/>
  <line class="st1" x1="685.4" y1="350.6" x2="650.1" y2="289.4"/>
  <path class="st1" d="M714.4,338.8l-36.9-63.9-.3-.4h0"/>
  <polyline class="st1" points="677.1 275.1 677.5 274.9 782.6 243.9"/>
  <line class="st1" x1="773.8" y1="214.2" x2="663.6" y2="246.6"/>
  <line class="st1" x1="874.7" y1="289.1" x2="803.1" y2="244.8"/>
  <line class="st1" x1="891.3" y1="262.8" x2="814.1" y2="215.1"/>
  <circle class="st1" cx="655.8" cy="267.7" r="22.5"/>
  <circle class="st1" cx="793.7" cy="224.5" r="22.5"/>
  <rect class="st1" x="880.1" y="262.4" width="30.5" height="44.8" rx="12.2" ry="12.2" transform="translate(283.5 -428.3) rotate(31.7)"/>
  <polyline class="st1" points="915.8 280.5 929.7 280.7 942.4 301.7"/>
  <polyline class="st1" points="900 306 906.4 318.4 930.8 320.4"/>
  <line class="st1" x1="655.8" y1="267.7" x2="655.8" y2="267.7"/>
  <line class="st1" x1="793.7" y1="224.5" x2="793.7" y2="224.5"/>
  <g>
    <path d="M674.8,865.7h-273.1v-170.5c0-6.7,5.4-12.1,12.1-12.1h248.8c6.7,0,12.1,5.4,12.1,12.1v170.5ZM413.9,853.5h248.7v-158.2h-248.7v158.2Z"/>
    <polygon points="426.1 877.4 406.2 877.4 400.8 886.9 421.5 886.9 426.1 877.4"/>
    <polygon points="444.6 886.9 448.3 877.4 428.4 877.4 423.9 886.9 444.6 886.9"/>
    <polygon points="467.7 886.9 470.5 877.4 450.6 877.4 447 886.9 467.7 886.9"/>
    <polygon points="490.8 886.9 492.7 877.4 472.8 877.4 470.1 886.9 490.8 886.9"/>
    <polygon points="514.9 877.4 495 877.4 493.2 886.9 513.9 886.9 514.9 877.4"/>
    <polygon points="537 877.4 517.2 877.4 516.3 886.9 537 886.9 537 877.4"/>
    <polygon points="560.1 886.9 559.2 877.4 539.4 877.4 539.4 886.9 560.1 886.9"/>
    <polygon points="583.2 886.9 581.4 877.4 561.6 877.4 562.5 886.9 583.2 886.9"/>
    <polygon points="606.3 886.9 603.6 877.4 583.8 877.4 585.6 886.9 606.3 886.9"/>
    <polygon points="652.5 886.9 648 877.4 628.1 877.4 631.8 886.9 652.5 886.9"/>
    <polygon points="675.6 886.9 670.2 877.4 650.3 877.4 654.9 886.9 675.6 886.9"/>
    <polygon points="629.4 886.9 625.8 877.4 605.9 877.4 608.7 886.9 629.4 886.9"/>
    <polygon points="420.7 888.5 399.9 888.5 394 899 415.7 899 420.7 888.5"/>
    <polygon points="418.2 899 439.9 899 444 888.5 423.2 888.5 418.2 899"/>
    <polygon points="467.2 888.5 446.4 888.5 442.5 899 464.2 899 467.2 888.5"/>
    <polygon points="490.5 888.5 469.7 888.5 466.7 899 488.4 899 490.5 888.5"/>
    <polygon points="512.7 899 513.8 888.5 492.9 888.5 491 899 512.7 899"/>
    <polygon points="537 888.5 516.2 888.5 515.2 899 536.9 899 537 888.5"/>
    <polygon points="539.5 899 561.2 899 560.3 888.5 539.4 888.5 539.5 899"/>
    <polygon points="563.7 899 585.4 899 583.5 888.5 562.7 888.5 563.7 899"/>
    <polygon points="609.7 899 606.7 888.5 585.9 888.5 588 899 609.7 899"/>
    <polygon points="658.2 899 653.3 888.5 632.4 888.5 636.5 899 658.2 899"/>
    <polygon points="660.8 899 682.5 899 676.5 888.5 655.7 888.5 660.8 899"/>
    <polygon points="609.2 888.5 612.2 899 634 899 630 888.5 609.2 888.5"/>
    <polygon points="414.8 900.7 393 900.7 386.4 912.3 409.2 912.3 414.8 900.7"/>
    <polygon points="411.9 912.3 434.8 912.3 439.3 900.7 417.4 900.7 411.9 912.3"/>
    <polygon points="463.7 900.7 441.8 900.7 437.4 912.3 460.3 912.3 463.7 900.7"/>
    <polygon points="488.1 900.7 466.2 900.7 463 912.3 485.8 912.3 488.1 900.7"/>
    <polygon points="512.5 900.7 490.6 900.7 488.5 912.3 511.3 912.3 512.5 900.7"/>
    <polygon points="536.9 912.3 536.9 900.7 515.1 900.7 514 912.3 536.9 912.3"/>
    <polygon points="539.6 912.3 562.4 912.3 561.4 900.7 539.5 900.7 539.6 912.3"/>
    <polygon points="563.9 900.7 565.1 912.3 587.9 912.3 585.8 900.7 563.9 900.7"/>
    <polygon points="613.5 912.3 610.2 900.7 588.3 900.7 590.6 912.3 613.5 912.3"/>
    <polygon points="664.5 912.3 659 900.7 637.2 900.7 641.7 912.3 664.5 912.3"/>
    <polygon points="667.2 912.3 690 912.3 683.5 900.7 661.6 900.7 667.2 912.3"/>
    <polygon points="639 912.3 634.6 900.7 612.8 900.7 616.1 912.3 639 912.3"/>
    <polygon points="385.2 914.3 378 927.1 402.1 927.1 408.3 914.3 385.2 914.3"/>
    <polygon points="411 914.3 404.9 927.1 429 927.1 434 914.3 411 914.3"/>
    <polygon points="436.7 914.3 431.8 927.1 456 927.1 459.7 914.3 436.7 914.3"/>
    <polygon points="614 914.3 591 914.3 588.3 914.3 565.3 914.3 562.6 914.3 539.6 914.3 536.9 914.3 513.9 914.3 511.1 914.3 488.1 914.3 462.4 914.3 458.8 927.1 485.7 927.1 509.9 927.1 512.7 927.1 536.8 927.1 539.6 927.1 563.7 927.1 566.6 927.1 590.7 927.1 593.5 927.1 617.6 927.1 617.8 927.1 614.2 914.3 614 914.3"/>
    <polygon points="642.4 914.3 647.4 927.1 671.5 927.1 665.4 914.3 642.4 914.3"/>
    <polygon points="691.2 914.3 668.1 914.3 674.3 927.1 698.5 927.1 691.2 914.3"/>
    <polygon points="616.7 914.3 620.5 927.1 644.6 927.1 639.7 914.3 616.7 914.3"/>
    <path d="M565.2,948.7c-.8,3.3-4.1,5.8-8,5.8h-38c-3.9,0-7.1-2.4-8-5.8h-155.1v5c0,4.4,3.9,7.9,8.7,7.9h346.8c4.8,0,8.7-3.5,8.7-7.9v-5h-155.2,0ZM674.5,872.5h-272.6l-43.6,72.7h359.8l-43.6-72.7h0ZM404.9,875.9h266.5l30.8,53.4h-328.2l30.8-53.4h0Z"/>
  </g>
  <g>
    <path class="st6" d="M376,201.1c-3.4-2.8-8.2-2.1-10.7,1.6l-4.4,6.5c-1.2,1.8-1.7,4-1.4,6.2s1.4,4.2,3.1,5.6l5.8,4.7-17.7,26.4-10.8-8.8c-3.8-3.1-9.6-2.3-12.3,1.8l-58.7,87.8c-2,3.1-2.9,6.8-2.3,10.6s1.9,6.2,4.1,8.4l-41.3,61.7c-1.2,1.8-1.8,3.9-1.7,6,0,0-.1.1-.2.2l-70.3,129.4c-.5.9-.3,2,.5,2.6.4.3.9.5,1.4.4s.8-.3,1.1-.6l94.4-109.7c0,0,.1-.1.2-.2,1.9-.6,3.6-1.8,4.8-3.6l41.3-61.7c2.6,1.6,5.5,2.3,8.5,1.8s6.5-2.5,8.5-5.5l58.8-87.8c2.8-4.2,1.9-10.3-2-13.6l-10.8-8.8,17.7-26.4,5.8,4.7c1.7,1.4,3.8,1.9,5.7,1.7s3.8-1.4,5-3.3l4.4-6.6c1.2-1.8,1.7-4,1.4-6.2s-1.4-4.2-3.1-5.6l-24.5-20ZM169.1,535.7l60.1-110.7c.6,1,1.4,2,2.4,2.8l15.2,12.4c.9.8,1.9,1.3,3,1.7l-80.7,93.8ZM256.6,435.9c-.8,1.3-2.2,2.1-3.5,2.3h0c-1.4.2-2.9-.2-4.1-1.1l-15.2-12.4c-1.3-1-2-2.5-2.2-4.1-.2-1.5,0-3.1,1-4.4l41.2-61.6,24.2,19.8-41.2,61.6ZM372.4,274.8c2.3,1.9,2.8,5.5,1.2,7.9l-58.7,87.8c-1.5,2.2-3.7,3.6-6.2,3.9s-3.9,0-5.6-1.1c-.5-.2-.9-.6-1.4-.9l-27.6-22.5c-.4-.3-.8-.7-1.2-1.2-1.4-1.5-2.3-3.5-2.6-5.7s.2-5.5,1.6-7.7l58.8-87.8c.8-1.2,2-2,3.4-2.2s2.8.2,3.8,1.1l34.5,28.2ZM360.8,260.4l-7-5.7,17.7-26.4,7,5.7-17.7,26.4ZM399.4,230.6l-4.4,6.5c-1.3,1.9-3.8,2.3-5.6.8l-6.3-5.2-11.8-9.7-6.3-5.2c-.9-.7-1.5-1.7-1.7-2.9s0-2.3.7-3.3l4.4-6.6c.7-1,1.6-1.5,2.7-1.7s2.1.1,3,.8l24.5,20c.9.7,1.4,1.8,1.6,3,.2,1.1,0,2.3-.7,3.3Z"/>
    <path class="st6" d="M331.7,269.2l-32.4,48.4c-.6.9-.4,2.1.4,2.8l19.9,16.3c.4.3.9.5,1.4.4s.9-.3,1.2-.8l32.4-48.4c.6-.9.4-2.1-.4-2.8l-20-16.3c-.8-.7-2-.5-2.5.4ZM320.4,332.3l-17-13.9,30.3-45.2,17,13.9-30.3,45.2Z"/>
    <path class="st6" d="M328.6,288.6c-.6.9-.4,2.1.4,2.8l7.2,5.9c.4.3.9.5,1.4.4s.9-.3,1.2-.8c.6-.9.4-2.1-.4-2.8l-7.2-5.9c-.8-.7-2-.5-2.5.4Z"/>
    <path class="st6" d="M324.7,297.9c-.8-.7-2-.5-2.5.4s-.4,2.1.4,2.8l7.2,5.9c.4.3.9.5,1.4.4s.9-.3,1.2-.8c.6-.9.4-2.1-.4-2.8l-7.2-5.9Z"/>
    <path class="st6" d="M318.2,307.7c-.8-.7-2-.5-2.5.4s-.4,2.1.4,2.8l7.2,5.9c.4.3.9.5,1.4.4s.9-.3,1.2-.8c.6-.9.4-2.1-.4-2.8l-7.2-5.9Z"/>
  </g>
</svg>