<?xml version="1.0" encoding="UTF-8"?>
<svg id="Layer_1" xmlns="http://www.w3.org/2000/svg" xmlns:xlink="http://www.w3.org/1999/xlink" version="1.1" viewBox="0 0 150 150">
  <!-- Generator: Adobe Illustrator 29.1.0, SVG Export Plug-In . SVG Version: 2.1.0 Build 142)  -->
  <defs>
    <style>
      .st0, .st1, .st2, .st3 {
        fill: none;
      }

      .st4 {
        fill: #caeefb;
      }

      .st4, .st5 {
        fill-rule: evenodd;
      }

      .st5 {
        fill: #d9f2d0;
      }

      .st6 {
        clip-path: url(#clippath-1);
      }

      .st7 {
        clip-path: url(#clippath-3);
      }

      .st8 {
        clip-path: url(#clippath-4);
      }

      .st9 {
        clip-path: url(#clippath-2);
      }

      .st10 {
        clip-path: url(#clippath-7);
      }

      .st11 {
        clip-path: url(#clippath-6);
      }

      .st12 {
        clip-path: url(#clippath-9);
      }

      .st13 {
        clip-path: url(#clippath-8);
      }

      .st14 {
        clip-path: url(#clippath-5);
      }

      .st15 {
        fill: #f2cfee;
      }

      .st1 {
        stroke: #024059;
      }

      .st1, .st2, .st3 {
        stroke-miterlimit: 8;
        stroke-width: .7px;
      }

      .st2 {
        stroke: #622c0f;
      }

      .st16 {
        clip-path: url(#clippath);
      }

      .st3 {
        stroke: #1c440d;
      }
    </style>
    <clipPath id="clippath">
      <rect class="st0" width="150" height="150"/>
    </clipPath>
    <clipPath id="clippath-1">
      <rect class="st0" x="12.8" y="19.4" width="53.1" height="53.1"/>
    </clipPath>
    <clipPath id="clippath-2">
      <rect class="st0" x="12.8" y="19.4" width="53.1" height="53.1"/>
    </clipPath>
    <clipPath id="clippath-3">
      <rect class="st0" width="150" height="150"/>
    </clipPath>
    <clipPath id="clippath-4">
      <rect class="st0" x="88.9" y="23.9" width="37.4" height="37.2"/>
    </clipPath>
    <clipPath id="clippath-5">
      <rect class="st0" x="88.9" y="23.9" width="37.4" height="37.2"/>
    </clipPath>
    <clipPath id="clippath-6">
      <rect class="st0" width="150" height="150"/>
    </clipPath>
    <clipPath id="clippath-7">
      <rect class="st0" x="54.7" y="88.9" width="40.8" height="40.8"/>
    </clipPath>
    <clipPath id="clippath-8">
      <rect class="st0" x="54.7" y="88.9" width="40.8" height="40.8"/>
    </clipPath>
    <clipPath id="clippath-9">
      <rect class="st0" width="150" height="150"/>
    </clipPath>
  </defs>
  <g class="st16">
    <circle class="st15" cx="75" cy="75" r="74.4"/>
    <circle class="st1" cx="75" cy="75" r="74.4"/>
    <path class="st4" d="M10.5,112.1C-10,76.5,2.2,31,37.9,10.5,49.2,4,62,.6,75,.6v74.4S10.5,112.1,10.5,112.1Z"/>
    <path class="st2" d="M10.5,112.1C-10,76.5,2.2,31,37.9,10.5,49.2,4,62,.6,75,.6v74.4S10.5,112.1,10.5,112.1Z"/>
    <path class="st5" d="M74.9.6c41.1-.2,74.6,33,74.8,74.1,0,11.7-2.7,23.3-7.9,33.7l-66.5-33.4-.3-74.4Z"/>
    <path class="st3" d="M74.9.6c41.1-.2,74.6,33,74.8,74.1,0,11.7-2.7,23.3-7.9,33.7l-66.5-33.4-.3-74.4Z"/>
  </g>
  <g class="st6">
    <g class="st9">
      <image width="256" height="256" transform="translate(12.8 19.4) scale(.2)" xlink:href="pipettesrobotskeyboards-1.png"/>
    </g>
  </g>
  <g class="st7">
    <text/>
  </g>
  <g class="st8">
    <g class="st14">
      <image width="256" height="256" transform="translate(88.9 23.9) scale(.1)" xlink:href="pipettesrobotskeyboards-2.png"/>
    </g>
  </g>
  <g class="st11">
    <text/>
  </g>
  <g class="st10">
    <g class="st13">
      <image width="256" height="256" transform="translate(54.7 88.9) scale(.2)" xlink:href="pipettesrobotskeyboards-3.png"/>
    </g>
  </g>
  <g class="st12">
    <text/>
  </g>
</svg>