<?xml version="1.0" encoding="UTF-8"?>
<svg id="Layer_2" data-name="Layer 2" xmlns="http://www.w3.org/2000/svg" viewBox="0 0 300 292.77">
  <g id="Layer_1-2" data-name="Layer 1">
    <g>
      <path d="M136.79,259.15H15c-8.28,0-15,6.72-15,15v18.62h151.79v-18.62c0-8.28-6.72-15-15-15Z"/>
      <circle  cx="140.12" cy="35.87" r="35.86" transform="translate(-3.39 53.89) rotate(-21.52)"/>
      <circle  cx="224.63" cy="80.72" r="21.89" transform="translate(-13.67 66.98) rotate(-16.47)"/>
      <path  d="M215.07,55.59l-34.12-21.43c.17,4.04-.26,8.18-1.36,12.29-3,11.18-10.48,20.24-20.2,25.45l38.79,13.65c-2.33-12.74,4.83-25.38,16.89-29.96Z"/>
      <path  d="M90.09,94.19c14.15,3.79,25.97,12.86,33.29,25.55.96,1.66,1.82,3.37,2.6,5.09l23.02-49.08c-2.86.64-5.83.98-8.85.98-3.56,0-7.13-.47-10.6-1.4-13.55-3.63-23.69-13.71-28-26.05l-29.89,43.19c1.39-.11,2.8-.17,4.21-.17,4.78,0,9.56.63,14.22,1.88Z"/>
      <path  d="M122.03,176.77c-9.89,15.39-27.11,25.23-46.1,25.23-4.78,0-9.56-.63-14.22-1.88-13.71-3.67-24.82-12.27-31.93-23.37l-15.8,77.4h123.85l-15.8-77.38Z"/>
      <path className="opacity-[.6]" d="M238.51,103.75c-2.13,1.28-4.46,2.28-6.93,2.94-2.28.61-4.63.92-6.97.92-2.96,0-5.84-.5-8.54-1.4l10.31,28.15,37.61,10.67,4.66-8.07-31.07-17.94.93-15.28Z"/>
      <path className="opacity-[.6]" d="M271.95,55.43l-29.55,5.15c3.87,3.42,6.78,7.94,8.19,13.19.66,2.47.96,4.98.92,7.47l12.76-8.45,31.07,17.94,4.66-8.07-28.05-27.23Z"/>
      <circle  cx="75.9" cy="147.15" r="49.83" transform="translate(-74.79 215.77) rotate(-87.2)"/>
    </g>
  </g>
</svg>