<?xml version="1.0" encoding="UTF-8"?>
<svg id="Layer_1" xmlns="http://www.w3.org/2000/svg" version="1.1" viewBox="0 0 773 875">
  <!-- Generator: Adobe Illustrator 29.1.0, SVG Export Plug-In . SVG Version: 2.1.0 Build 142)  -->
  <defs>
    <style>
      .st0, .st1, .st2, .st3, .st4, .st5, .st6, .st7, .st8, .st9, .st10, .st11 {
        fill: none;
      }

      .st12 {
        fill: #aeb2f4;
      }

      .st13 {
        fill: #f6d13a;
      }

      .st14 {
        fill: #f3ae00;
      }

      .st15 {
        fill: #b6148a;
      }

      .st15, .st16, .st17, .st18, .st19, .st20, .st21, .st22, .st23, .st24, .st25, .st26, .st27, .st28, .st29, .st30, .st31, .st32, .st33, .st34, .st35 {
        isolation: isolate;
      }

      .st15, .st16, .st17, .st19, .st20, .st21, .st22, .st24, .st25, .st26, .st27, .st28, .st29, .st30, .st31, .st33 {
        mix-blend-mode: multiply;
      }

      .st36 {
        fill: #888abf;
      }

      .st16, .st22 {
        opacity: 0;
      }

      .st16, .st37 {
        fill: #e3e6f9;
      }

      .st1 {
        stroke-dasharray: 2.1 25.1;
      }

      .st1, .st2, .st3, .st4, .st5, .st6, .st7, .st8, .st9, .st10, .st11 {
        stroke-linecap: round;
        stroke-linejoin: round;
      }

      .st1, .st3, .st6, .st8, .st9, .st10 {
        stroke: #f2f2f2;
        stroke-width: 4px;
      }

      .st2 {
        stroke: #2c4482;
        stroke-width: 1.7px;
      }

      .st17 {
        fill: #552091;
      }

      .st18, .st20, .st38 {
        fill: #939fe7;
      }

      .st18, .st32 {
        opacity: .5;
      }

      .st39 {
        fill: #434240;
      }

      .st40 {
        fill: #2c353b;
      }

      .st19 {
        opacity: .4;
      }

      .st19, .st30 {
        fill: #a8c4e5;
      }

      .st20 {
        opacity: .6;
      }

      .st41 {
        fill: #e6ba55;
      }

      .st21 {
        fill: #a5ce2a;
      }

      .st21, .st24, .st25, .st26, .st33 {
        opacity: .7;
      }

      .st4, .st5 {
        stroke: #afcfed;
      }

      .st22, .st27 {
        fill: #d2ddfa;
      }

      .st5 {
        stroke-width: .8px;
      }

      .st42 {
        fill: #2f478a;
      }

      .st6 {
        stroke-dasharray: 2.1 25.8;
      }

      .st7 {
        stroke: #fff;
        stroke-width: 2.2px;
      }

      .st43 {
        fill: #2c4482;
      }

      .st44 {
        fill: #022652;
      }

      .st45 {
        fill: #e1eaf4;
      }

      .st8 {
        stroke-dasharray: 2 24.1;
      }

      .st46, .st34, .st35 {
        fill: #fff;
      }

      .st24 {
        fill: #d917a4;
      }

      .st47 {
        fill: #ec2f2f;
      }

      .st25 {
        fill: #0098e5;
      }

      .st48 {
        fill: #6565bb;
      }

      .st26 {
        fill: #6b28b4;
      }

      .st27 {
        opacity: 0;
      }

      .st49 {
        fill: #2f81ec;
      }

      .st50 {
        fill: #35332f;
      }

      .st9 {
        stroke-dasharray: 1.9 23.3;
      }

      .st51 {
        fill: #35519c;
      }

      .st28 {
        fill: #88ab23;
      }

      .st52 {
        fill: #e88503;
      }

      .st53 {
        fill: #5d7280;
      }

      .st10 {
        stroke-dasharray: 1.9 22.9;
      }

      .st29 {
        fill: #dc8b04;
      }

      .st54 {
        fill: #ffb850;
      }

      .st11 {
        stroke: #35519c;
        stroke-width: 2px;
      }

      .st55 {
        fill: #85bbff;
      }

      .st56 {
        fill: #ffca6c;
      }

      .st31 {
        fill: #0081c2;
      }

      .st57 {
        fill: #bac2f0;
      }

      .st32 {
        fill: #888;
      }

      .st58 {
        fill: #3b4951;
      }

      .st59 {
        fill: #1e1b17;
      }

      .st33 {
        fill: #ffa105;
      }

      .st34 {
        mix-blend-mode: screen;
      }

      .st60 {
        fill: #ebf5ff;
      }

      .st61 {
        fill: #fd9500;
      }

      .st62 {
        fill: #d7daff;
      }

      .st35 {
        opacity: .3;
      }
    </style>
  </defs>
  <g class="st23">
    <g id="Layer_11" data-name="Layer_1">
      <g>
        <path class="st36" d="M97.5,293l-19,23.7c-.2.2-.5.3-.9.3-.8,0-1.8-.8-2.2-1.5-.2-.4-.2-.7,0-.9l15.9-25.8,6.1,4.3h0Z"/>
        <path class="st12" d="M130.7,255.2l-37.2,44.9c-.4.6-1.1.8-2.2.8-2-.2-4.4-1.8-5.3-3.7-.4-.9-.4-1.7,0-2.3l29.7-50.1,14.9,10.5h.1Z"/>
        <path class="st58" d="M186.6,184.6l-52.3,74.3c-1.2,1.7-3.6,2.6-6.8,2.3-6.4-.6-13.8-5.8-16.5-11.6-1.3-2.9-1.3-5.4,0-7.1l52.3-74.3,23.3,16.4h0Z"/>
        <path class="st12" d="M192.4,176.4l-52.3,74.3c-1.2,1.7-3.6,2.6-6.8,2.3-6.4-.6-13.8-5.8-16.5-11.6-1.3-2.9-1.3-5.4,0-7.1l52.3-74.3,23.3,16.4h0Z"/>
        <g>
          <path class="st58" d="M204.9,164.5l-8.4,12c-1.5,2.1-4.4,3.2-8.3,2.9-7.9-.7-17-7.1-20.3-14.3-1.7-3.6-1.6-6.7,0-8.8l8.4-12,28.8,20.3h-.2Z"/>
          <path class="st53" d="M196.6,167.4c-7.9-.7-17-7.1-20.3-14.3s.4-12.5,8.3-11.7c7.9.7,17,7.1,20.3,14.3s-.4,12.5-8.3,11.7Z"/>
        </g>
        <g>
          <path class="st12" d="M204.1,153.1l-5,7.1c-.9,1.3-2.6,1.9-4.9,1.7-4.7-.4-10-4.2-12-8.5-1-2.1-.9-4,0-5.2l5-7.1,17,12h-.1Z"/>
          <path class="st62" d="M199.2,154.8c-4.7-.4-10-4.2-12-8.5s.2-7.4,4.9-6.9c4.7.4,10,4.2,12,8.5s-.2,7.4-4.9,6.9Z"/>
        </g>
        <g>
          <path class="st14" d="M203.6,146.1l-2.9,4c-.5.7-1.5,1.1-2.8,1-2.7-.2-5.7-2.4-6.9-4.8-.6-1.2-.5-2.3,0-3l2.9-4,9.7,6.8Z"/>
          <path class="st13" d="M200.8,147.1c-2.7-.2-5.7-2.4-6.9-4.8-1.1-2.4.1-4.2,2.8-4s5.7,2.4,6.9,4.8c1.1,2.4-.1,4.2-2.8,4Z"/>
        </g>
        <g>
          <polygon class="st53" points="153.9 160.4 147.8 147.3 173 149.5 179.1 162.7 153.9 160.4"/>
          <polygon class="st40" points="149.7 166.3 153.9 160.4 179.1 162.7 174.9 168.6 149.7 166.3"/>
          <polygon class="st58" points="153.9 160.4 149.7 166.3 143.6 153.2 147.8 147.3 153.9 160.4"/>
        </g>
        <g>
          <path class="st36" d="M172,202.2c-1.2,1.7-3.9,2.9-5.9,2.7-2.1-.2-2.8-1.7-1.6-3.4s3.9-2.9,5.9-2.7c2.1.2,2.8,1.7,1.6,3.4Z"/>
          <path class="st36" d="M163.5,214.3c-1.2,1.7-3.9,2.9-5.9,2.7-2.1-.2-2.8-1.7-1.6-3.4s3.9-2.9,5.9-2.7c2.1.2,2.8,1.7,1.6,3.4Z"/>
          <path class="st36" d="M155,226.4c-1.2,1.7-3.9,2.9-5.9,2.7-2.1-.2-2.8-1.7-1.6-3.4s3.9-2.9,5.9-2.7c2.1.2,2.8,1.7,1.6,3.4Z"/>
        </g>
      </g>
      <g>
        <g>
          <path class="st48" d="M614.1,345.1l-121.8-70.3c-2.1-1.2-3.2-2.9-3.2-4.6v-6c0-2.1,1.6,1.6,4.6-.2l69.2-39.9c5.6-3.2,14-3.6,18.8-.8l121.8,70.3c1.6.9,2.8-3,3.2-1.8,0,.4,0,5.9,0,6.4,0,2.2-1.5,4.4-4.6,6.2l-69.2,39.9c-5.6,3.2-14,3.6-18.8.8h0Z"/>
          <path class="st37" d="M614.1,339.2l-121.8-70.3c-4.8-2.8-4.2-7.6,1.3-10.8l69.2-39.9c5.6-3.2,14-3.6,18.8-.8l121.8,70.3c4.8,2.8,4.2,7.6-1.3,10.8l-69.2,39.9c-5.6,3.2-14,3.6-18.8.8Z"/>
          <path class="st18" d="M614.1,345.1c4.8,2.8,13.2,2.4,18.8-.8v-5.9c-5.6,3.2-14,3.6-18.8.8v5.9Z"/>
          <path class="st38" d="M614.1,339.2l-121.8-70.3c-2.3-1.3-3.4-3.2-3.2-5.1v6.3c0,1.7,1.1,3.4,3.2,4.6l121.8,70.3v-5.9h0Z"/>
          <path class="st46" d="M702,297.5l-69.2,39.9c-5.6,3.2-14,3.6-18.8.8l-121.8-70.3c-2-1.2-3-2.7-3.2-4.3-.2,2,.8,3.9,3.2,5.3l121.8,70.3c4.8,2.8,13.2,2.4,18.8-.8l69.2-39.9c3.3-1.9,4.8-4.3,4.6-6.6-.2,2-1.8,4-4.6,5.6h0Z"/>
          <path class="st35" d="M586.4,314.6l-43.4-25c-.9-.5-.8-1.4.2-2l16.3-9.4c1-.6,2.5-.6,3.4-.1l43.4,25c.9.5.8,1.4-.2,2l-16.3,9.4c-1,.6-2.5.6-3.4.1Z"/>
          <path class="st38" d="M543.2,288.6l16.3-9.4c1-.6,2.5-.6,3.4-.1l43.4,25c.2.1.3.2.4.4.3-.5.2-1-.4-1.4l-43.4-25c-.9-.5-2.4-.4-3.4.1l-16.3,9.4c-.8.5-1,1.1-.6,1.6,0-.2.3-.4.6-.6Z"/>
          <path class="st38" d="M573.6,226.3l7.5,4.3c1,.5,2.5.6,3.4,0s.9-1.4,0-2l-7.5-4.3c-1-.5-2.5-.6-3.4,0-.9.5-.9,1.4,0,2ZM586.4,233.7l3.5,2c1,.5,2.5.6,3.4,0,.9-.5.9-1.4,0-2l-3.5-2c-1-.5-2.5-.6-3.4,0s-.9,1.4,0,2ZM595.2,238.8l3.5,2c1,.5,2.5.6,3.4,0,.9-.5.9-1.4,0-2l-3.5-2c-1-.5-2.5-.6-3.4,0-.9.5-.9,1.4,0,2ZM604.1,243.9l3.5,2c1,.5,2.5.6,3.4,0s.9-1.4,0-2l-3.5-2c-1-.5-2.5-.6-3.4,0-.9.5-.9,1.4,0,2ZM613,249.1l3.5,2c1,.5,2.5.6,3.4,0,.9-.5.9-1.4,0-2l-3.5-2c-1-.5-2.5-.6-3.4,0-.9.5-.9,1.4,0,2ZM621.8,254.2l3.5,2c1,.5,2.5.6,3.4,0,.9-.5.9-1.4,0-2l-3.5-2c-1-.5-2.5-.6-3.4,0-.9.5-.9,1.4,0,2h0ZM630.7,259.3l3.5,2c1,.5,2.5.6,3.4,0,.9-.5.9-1.4,0-2l-3.5-2c-1-.5-2.5-.6-3.4,0-.9.5-.9,1.4,0,2ZM639.6,264.4l3.5,2c1,.5,2.5.6,3.4,0,.9-.5.9-1.4,0-2l-3.5-2c-1-.5-2.5-.6-3.4,0-.9.5-.9,1.4,0,2ZM648.4,269.5l3.5,2c1,.5,2.5.6,3.4,0,.9-.5.9-1.4,0-2l-3.5-2c-1-.5-2.5-.6-3.4,0-.9.5-.9,1.4,0,2ZM657.3,274.6l3.5,2c1,.5,2.5.6,3.4,0s.9-1.4,0-2l-3.5-2c-1-.5-2.5-.6-3.4,0-.9.5-.9,1.4,0,2ZM666.1,279.8l3.5,2c1,.5,2.5.6,3.4,0s.9-1.4,0-2l-3.5-2c-1-.5-2.5-.6-3.4,0s-.9,1.4,0,2ZM675,284.9l3.5,2c1,.5,2.5.6,3.4,0,.9-.5.9-1.4,0-2l-3.5-2c-1-.5-2.5-.6-3.4,0-.9.5-.9,1.4,0,2ZM684.1,290.1l3.5,2c1,.5,2.5.6,3.4,0,.9-.5.9-1.4,0-2l-3.5-2c-1-.5-2.5-.6-3.4,0-.9.5-.9,1.4,0,2ZM565.6,231.2l3.1,1.8c1.1.6,2.8.6,3.9,0l3-1.8c1.1-.6,1.1-1.6,0-2.3l-3.1-1.8c-1.1-.6-2.8-.6-3.9,0l-3,1.8c-1.1.6-1.1,1.6,0,2.3ZM581.4,238.1l3-1.8c1.1-.6,1.1-1.6,0-2.3l-3.1-1.8c-1.1-.6-2.8-.6-3.9,0l-3,1.8c-1.1.6-1.1,1.6,0,2.3l3.1,1.8c1.1.6,2.8.6,3.9,0ZM583.3,241.4l3.1,1.8c1.1.6,2.8.6,3.9,0l3-1.8c1.1-.6,1.1-1.6,0-2.3l-3.1-1.8c-1.1-.6-2.8-.6-3.9,0l-3,1.8c-1.1.6-1.1,1.6,0,2.3ZM592.2,246.5l3.1,1.8c1.1.6,2.8.6,3.9,0l3-1.8c1.1-.6,1.1-1.6,0-2.3l-3.1-1.8c-1.1-.6-2.8-.6-3.9,0l-3,1.8c-1.1.6-1.1,1.6,0,2.3ZM611.1,249.4l-3.1-1.8c-1.1-.6-2.8-.6-3.9,0l-3,1.8c-1.1.6-1.1,1.6,0,2.3l3.1,1.8c1.1.6,2.8.6,3.9,0l3-1.8c1.1-.6,1.1-1.6,0-2.3ZM619.9,254.5l-3.1-1.8c-1.1-.6-2.8-.6-3.9,0l-3,1.8c-1.1.6-1.1,1.6,0,2.3l3.1,1.8c1.1.6,2.8.6,3.9,0l3-1.8c1.1-.6,1.1-1.6,0-2.3h0ZM628.8,259.7l-3.1-1.8c-1.1-.6-2.8-.6-3.9,0l-3,1.8c-1.1.6-1.1,1.6,0,2.3l3.1,1.8c1.1.6,2.8.6,3.9,0l3-1.8c1.1-.6,1.1-1.6,0-2.3ZM637.7,264.8l-3.1-1.8c-1.1-.6-2.8-.6-3.9,0l-3,1.8c-1.1.6-1.1,1.6,0,2.3l3.1,1.8c1.1.6,2.8.6,3.9,0l3-1.8c1.1-.6,1.1-1.6,0-2.3ZM646.5,269.9l-3.1-1.8c-1.1-.6-2.8-.6-3.9,0l-3,1.8c-1.1.6-1.1,1.6,0,2.3l3.1,1.8c1.1.6,2.8.6,3.9,0l3-1.8c1.1-.6,1.1-1.6,0-2.3ZM655.4,275l-3.1-1.8c-1.1-.6-2.8-.6-3.9,0l-3,1.8c-1.1.6-1.1,1.6,0,2.3l3.1,1.8c1.1.6,2.8.6,3.9,0l3-1.8c1.1-.6,1.1-1.6,0-2.3ZM654.2,282.4l3.1,1.8c1.1.6,2.8.6,3.9,0l3-1.8c1.1-.6,1.1-1.6,0-2.3l-3.1-1.8c-1.1-.6-2.8-.6-3.9,0l-3,1.8c-1.1.6-1.1,1.6,0,2.3ZM673.1,285.2l-3.1-1.8c-1.1-.6-2.8-.6-3.9,0l-3,1.8c-1.1.6-1.1,1.6,0,2.3l3.1,1.8c1.1.6,2.8.6,3.9,0l3-1.8c1.1-.6,1.1-1.6,0-2.3ZM686.1,292.7l-7-4c-1.1-.6-2.8-.6-3.9,0l-3,1.8c-1.1.6-1.1,1.6,0,2.3l7,4c1.1.6,2.8.6,3.9,0l3-1.8c1.1-.6,1.1-1.6,0-2.3ZM557.4,235.9l7,4c1.1.6,2.8.6,3.9,0l3-1.8c1.1-.6,1.1-1.6,0-2.3l-7-4c-1.1-.6-2.8-.6-3.9,0l-3,1.8c-1.1.6-1.1,1.6,0,2.3ZM570.2,243.3l3.1,1.8c1.1.6,2.8.6,3.9,0l3-1.8c1.1-.6,1.1-1.6,0-2.3l-3.1-1.8c-1.1-.6-2.8-.6-3.9,0l-3,1.8c-1.1.6-1.1,1.6,0,2.3ZM582.1,250.2c1.1.6,2.8.6,3.9,0l3-1.8c1.1-.6,1.1-1.6,0-2.3l-3.1-1.8c-1.1-.6-2.8-.6-3.9,0l-3,1.8c-1.1.6-1.1,1.6,0,2.3l3.1,1.8ZM591,255.3c1.1.6,2.8.6,3.9,0l3-1.8c1.1-.6,1.1-1.6,0-2.3l-3.1-1.8c-1.1-.6-2.8-.6-3.9,0l-3,1.8c-1.1.6-1.1,1.6,0,2.3l3.1,1.8ZM599.8,254.7l-3,1.8c-1.1.6-1.1,1.6,0,2.3l3.1,1.8c1.1.6,2.8.6,3.9,0l3-1.8c1.1-.6,1.1-1.6,0-2.3l-3.1-1.8c-1.1-.6-2.8-.6-3.9,0ZM608.9,259.7l-3.4,2c-1,.6-1,1.5,0,2l3.4,2c1,.6,2.6.6,3.5,0l3.4-2c1-.6,1-1.5,0-2l-3.4-2c-1-.6-2.6-.6-3.5,0ZM617.7,264.8l-3.4,2c-1,.6-1,1.5,0,2l3.4,2c1,.6,2.6.6,3.5,0l3.4-2c1-.6,1-1.5,0-2l-3.4-2c-1-.6-2.6-.6-3.5,0ZM626.6,269.9l-3.4,2c-1,.6-1,1.5,0,2l3.4,2c1,.6,2.6.6,3.5,0l3.4-2c1-.6,1-1.5,0-2l-3.4-2c-1-.6-2.6-.6-3.5,0ZM635.5,275l-3.4,2c-1,.6-1,1.5,0,2l3.4,2c1,.6,2.6.6,3.5,0l3.4-2c1-.6,1-1.5,0-2l-3.4-2c-1-.6-2.6-.6-3.5,0ZM644.3,280.1l-3.4,2c-1,.6-1,1.5,0,2l3.4,2c1,.6,2.6.6,3.5,0l3.4-2c1-.6,1-1.5,0-2l-3.4-2c-1-.6-2.6-.6-3.5,0ZM656.7,291.3l3.4-2c1-.6,1-1.5,0-2l-3.4-2c-1-.6-2.6-.6-3.5,0l-3.4,2c-1,.6-1,1.5,0,2l3.4,2c1,.6,2.6.6,3.5,0ZM665.6,296.4l3.4-2c1-.6,1-1.5,0-2l-3.4-2c-1-.6-2.6-.6-3.5,0l-3.4,2c-1,.6-1,1.5,0,2l3.4,2c1,.6,2.6.6,3.5,0ZM678.1,297.6l-3.4-2c-1-.6-2.6-.6-3.5,0l-3.4,2c-1,.6-1,1.5,0,2l3.4,2c1,.6,2.6.6,3.5,0l3.4-2c1-.6,1-1.5,0-2ZM549,240.6l11.1,6.4c1,.6,2.6.6,3.5,0l3.4-2c1-.6,1-1.5,0-2l-11.1-6.4c-1-.6-2.6-.6-3.5,0l-3.4,2c-1,.6-1,1.5,0,2ZM565.5,250.1l3.4,2c1,.6,2.6.6,3.5,0l3.4-2c1-.6,1-1.5,0-2l-3.4-2c-1-.6-2.6-.6-3.5,0l-3.4,2c-1,.6-1,1.5,0,2ZM574.4,255.2l3.4,2c1,.6,2.6.6,3.5,0l3.4-2c1-.6,1-1.5,0-2l-3.4-2c-1-.6-2.6-.6-3.5,0l-3.4,2c-1,.6-1,1.5,0,2h0ZM583.3,260.3l3.4,2c1,.6,2.6.6,3.5,0l3.4-2c1-.6,1-1.5,0-2l-3.4-2c-1-.6-2.6-.6-3.5,0l-3.4,2c-1,.6-1,1.5,0,2ZM599.1,267.5l3.4-2c1-.6,1-1.5,0-2l-3.4-2c-1-.6-2.6-.6-3.5,0l-3.4,2c-1,.6-1,1.5,0,2l3.4,2c1,.6,2.6.6,3.5,0ZM608,272.6l3.4-2c1-.6,1-1.5,0-2l-3.4-2c-1-.6-2.6-.6-3.5,0l-3.4,2c-1,.6-1,1.5,0,2l3.4,2c1,.6,2.6.6,3.5,0ZM616.8,277.7l3.4-2c1-.6,1-1.5,0-2l-3.4-2c-1-.6-2.6-.6-3.5,0l-3.4,2c-1,.6-1,1.5,0,2l3.4,2c1,.6,2.6.6,3.5,0ZM625.7,282.8l3.4-2c1-.6,1-1.5,0-2l-3.4-2c-1-.6-2.6-.6-3.5,0l-3.4,2c-1,.6-1,1.5,0,2l3.4,2c1,.6,2.6.6,3.5,0ZM634.6,287.9l3.4-2c1-.6,1-1.5,0-2l-3.4-2c-1-.6-2.6-.6-3.5,0l-3.4,2c-1,.6-1,1.5,0,2l3.4,2c1,.6,2.6.6,3.5,0ZM643.4,293l3.4-2c1-.6,1-1.5,0-2l-3.4-2c-1-.6-2.6-.6-3.5,0l-3.4,2c-1,.6-1,1.5,0,2l3.4,2c1,.6,2.6.6,3.5,0ZM645.3,296.2l3.4,2c1,.6,2.6.6,3.5,0l3.4-2c1-.6,1-1.5,0-2l-3.4-2c-1-.6-2.6-.6-3.5,0l-3.4,2c-1,.6-1,1.5,0,2ZM669.9,302.3l-8.8-5.1c-1-.6-2.6-.6-3.5,0l-3.4,2c-1,.6-1,1.5,0,2l8.8,5.1c1,.6,2.6.6,3.5,0l3.4-2c1-.6,1-1.5,0-2ZM540.8,245.6l15.8,9.1c1.1.6,2.9.6,4,0l3-1.7c1.1-.6,1.1-1.7,0-2.3l-15.8-9.1c-1.1-.6-2.9-.6-4,0l-3,1.7c-1.1.6-1.1,1.7,0,2.3ZM562.5,258.1l3,1.7c1.1.6,2.9.6,4,0l3-1.7c1.1-.6,1.1-1.7,0-2.3l-3-1.7c-1.1-.6-2.9-.6-4,0l-3,1.7c-1.1.6-1.1,1.7,0,2.3ZM571.3,263.2l3,1.7c1.1.6,2.9.6,4,0l3-1.7c1.1-.6,1.1-1.7,0-2.3l-3-1.7c-1.1-.6-2.9-.6-4,0l-3,1.7c-1.1.6-1.1,1.7,0,2.3ZM580.2,268.3l3,1.7c1.1.6,2.9.6,4,0l3-1.7c1.1-.6,1.1-1.7,0-2.3l-3-1.7c-1.1-.6-2.9-.6-4,0l-3,1.7c-1.1.6-1.1,1.7,0,2.3ZM589.1,273.4l3,1.7c1.1.6,2.9.6,4,0l3-1.7c1.1-.6,1.1-1.7,0-2.3l-3-1.7c-1.1-.6-2.9-.6-4,0l-3,1.7c-1.1.6-1.1,1.7,0,2.3ZM597.9,278.5l3,1.7c1.1.6,2.9.6,4,0l3-1.7c1.1-.6,1.1-1.7,0-2.3l-3-1.7c-1.1-.6-2.9-.6-4,0l-3,1.7c-1.1.6-1.1,1.7,0,2.3ZM606.8,283.6l3,1.7c1.1.6,2.9.6,4,0l3-1.7c1.1-.6,1.1-1.7,0-2.3l-3-1.7c-1.1-.6-2.9-.6-4,0l-3,1.7c-1.1.6-1.1,1.7,0,2.3ZM615.7,288.8l3,1.7c1.1.6,2.9.6,4,0l3-1.7c1.1-.6,1.1-1.7,0-2.3l-3-1.7c-1.1-.6-2.9-.6-4,0l-3,1.7c-1.1.6-1.1,1.7,0,2.3ZM624.5,293.9l3,1.7c1.1.6,2.9.6,4,0l3-1.7c1.1-.6,1.1-1.7,0-2.3l-3-1.7c-1.1-.6-2.9-.6-4,0l-3,1.7c-1.1.6-1.1,1.7,0,2.3ZM633.4,299l3,1.7c1.1.6,2.9.6,4,0l3-1.7c1.1-.6,1.1-1.7,0-2.3l-3-1.7c-1.1-.6-2.9-.6-4,0l-3,1.7c-1.1.6-1.1,1.7,0,2.3ZM642.2,304.1l3,1.7c1.1.6,2.9.6,4,0l3-1.7c1.1-.6,1.1-1.7,0-2.3l-3-1.7c-1.1-.6-2.9-.6-4,0l-3,1.7c-1.1.6-1.1,1.7,0,2.3ZM661.2,307l-3-1.7c-1.1-.6-2.9-.6-4,0l-3,1.7c-1.1.6-1.1,1.7,0,2.3l3,1.7c1.1.6,2.9.6,4,0l3-1.7c1.1-.6,1.1-1.7,0-2.3ZM546.5,250.3l-6.9-4c-1.1-.6-2.9-.6-4,0l-3,1.7c-1.1.6-1.1,1.7,0,2.3l6.9,4c1.1.6,2.9.6,4,0l3-1.7c1.1-.6,1.1-1.7,0-2.3ZM555.3,255.4l-3-1.7c-1.1-.6-2.9-.6-4,0l-3,1.7c-1.1.6-1.1,1.7,0,2.3l3,1.7c1.1.6,2.9.6,4,0l3-1.7c1.1-.6,1.1-1.7,0-2.3h0ZM564.2,260.5l-3-1.7c-1.1-.6-2.9-.6-4,0l-3,1.7c-1.1.6-1.1,1.7,0,2.3l3,1.7c1.1.6,2.9.6,4,0l3-1.7c1.1-.6,1.1-1.7,0-2.3ZM626.2,296.3l-56.2-32.4c-1.1-.6-2.9-.6-4,0l-3,1.7c-1.1.6-1.1,1.7,0,2.3l56.2,32.4c1.1.6,2.9.6,4,0l3-1.7c1.1-.6,1.1-1.7,0-2.3ZM635.1,301.4l-3-1.7c-1.1-.6-2.9-.6-4,0l-3,1.7c-1.1.6-1.1,1.7,0,2.3l3,1.7c1.1.6,2.9.6,4,0l3-1.7c1.1-.6,1.1-1.7,0-2.3ZM644,306.6l-3-1.7c-1.1-.6-2.9-.6-4,0l-3,1.7c-1.1.6-1.1,1.7,0,2.3l3,1.7c1.1.6,2.9.6,4,0l3-1.7c1.1-.6,1.1-1.7,0-2.3ZM653,311.8l-3-1.7c-1.1-.6-2.9-.6-4,0l-3,1.7c-1.1.6-1.1,1.7,0,2.3l3,1.7c1.1.6,2.9.6,4,0l3-1.7c1.1-.6,1.1-1.7,0-2.3Z"/>
          <path class="st48" d="M573.6,225.5l7.5,4.3c1,.5,2.5.6,3.4,0s.9-1.4,0-2l-7.5-4.3c-1-.5-2.5-.6-3.4,0s-.9,1.4,0,2ZM586.4,232.9l3.5,2c1,.5,2.5.6,3.4,0,.9-.5.9-1.4,0-2l-3.5-2c-1-.5-2.5-.6-3.4,0-.9.5-.9,1.4,0,2ZM595.2,238l3.5,2c1,.5,2.5.6,3.4,0,.9-.5.9-1.4,0-2l-3.5-2c-1-.5-2.5-.6-3.4,0s-.9,1.4,0,2ZM604.1,243.1l3.5,2c1,.5,2.5.6,3.4,0s.9-1.4,0-2l-3.5-2c-1-.5-2.5-.6-3.4,0-.9.5-.9,1.4,0,2ZM613,248.2l3.5,2c1,.5,2.5.6,3.4,0,.9-.5.9-1.4,0-2l-3.5-2c-1-.5-2.5-.6-3.4,0-.9.5-.9,1.4,0,2ZM621.8,253.4l3.5,2c1,.5,2.5.6,3.4,0,.9-.5.9-1.4,0-2l-3.5-2c-1-.5-2.5-.6-3.4,0s-.9,1.4,0,2ZM630.7,258.5l3.5,2c1,.5,2.5.6,3.4,0,.9-.5.9-1.4,0-2l-3.5-2c-1-.5-2.5-.6-3.4,0-.9.5-.9,1.4,0,2ZM639.6,263.6l3.5,2c1,.5,2.5.6,3.4,0,.9-.5.9-1.4,0-2l-3.5-2c-1-.5-2.5-.6-3.4,0-.9.5-.9,1.4,0,2ZM648.4,268.7l3.5,2c1,.5,2.5.6,3.4,0s.9-1.4,0-2l-3.5-2c-1-.5-2.5-.6-3.4,0-.9.5-.9,1.4,0,2ZM657.3,273.8l3.5,2c1,.5,2.5.6,3.4,0s.9-1.4,0-2l-3.5-2c-1-.5-2.5-.6-3.4,0-.9.5-.9,1.4,0,2ZM666.1,278.9l3.5,2c1,.5,2.5.6,3.4,0,.9-.5.9-1.4,0-2l-3.5-2c-1-.5-2.5-.6-3.4,0-.9.5-.9,1.4,0,2ZM675,284.1l3.5,2c1,.5,2.5.6,3.4,0,.9-.5.9-1.4,0-2l-3.5-2c-1-.5-2.5-.6-3.4,0s-.9,1.4,0,2ZM684.1,289.3l3.5,2c1,.5,2.5.6,3.4,0,.9-.5.9-1.4,0-2l-3.5-2c-1-.5-2.5-.6-3.4,0-.9.5-.9,1.4,0,2ZM565.6,230.4l3.1,1.8c1.1.6,2.8.6,3.9,0l3-1.8c1.1-.6,1.1-1.6,0-2.3l-3.1-1.8c-1.1-.6-2.8-.6-3.9,0l-3,1.8c-1.1.6-1.1,1.6,0,2.3ZM581.4,237.3l3-1.8c1.1-.6,1.1-1.6,0-2.3l-3.1-1.8c-1.1-.6-2.8-.6-3.9,0l-3,1.8c-1.1.6-1.1,1.6,0,2.3l3.1,1.8c1.1.6,2.8.6,3.9,0ZM583.3,240.6l3.1,1.8c1.1.6,2.8.6,3.9,0l3-1.8c1.1-.6,1.1-1.6,0-2.3l-3.1-1.8c-1.1-.6-2.8-.6-3.9,0l-3,1.8c-1.1.6-1.1,1.6,0,2.3ZM592.2,245.7l3.1,1.8c1.1.6,2.8.6,3.9,0l3-1.8c1.1-.6,1.1-1.6,0-2.3l-3.1-1.8c-1.1-.6-2.8-.6-3.9,0l-3,1.8c-1.1.6-1.1,1.6,0,2.3ZM611.1,248.6l-3.1-1.8c-1.1-.6-2.8-.6-3.9,0l-3,1.8c-1.1.6-1.1,1.6,0,2.3l3.1,1.8c1.1.6,2.8.6,3.9,0l3-1.8c1.1-.6,1.1-1.6,0-2.3ZM619.9,253.7l-3.1-1.8c-1.1-.6-2.8-.6-3.9,0l-3,1.8c-1.1.6-1.1,1.6,0,2.3l3.1,1.8c1.1.6,2.8.6,3.9,0l3-1.8c1.1-.6,1.1-1.6,0-2.3h0ZM628.8,258.8l-3.1-1.8c-1.1-.6-2.8-.6-3.9,0l-3,1.8c-1.1.6-1.1,1.6,0,2.3l3.1,1.8c1.1.6,2.8.6,3.9,0l3-1.8c1.1-.6,1.1-1.6,0-2.3ZM637.7,264l-3.1-1.8c-1.1-.6-2.8-.6-3.9,0l-3,1.8c-1.1.6-1.1,1.6,0,2.3l3.1,1.8c1.1.6,2.8.6,3.9,0l3-1.8c1.1-.6,1.1-1.6,0-2.3ZM646.5,269.1l-3.1-1.8c-1.1-.6-2.8-.6-3.9,0l-3,1.8c-1.1.6-1.1,1.6,0,2.3l3.1,1.8c1.1.6,2.8.6,3.9,0l3-1.8c1.1-.6,1.1-1.6,0-2.3ZM655.4,274.2l-3.1-1.8c-1.1-.6-2.8-.6-3.9,0l-3,1.8c-1.1.6-1.1,1.6,0,2.3l3.1,1.8c1.1.6,2.8.6,3.9,0l3-1.8c1.1-.6,1.1-1.6,0-2.3ZM654.2,281.5l3.1,1.8c1.1.6,2.8.6,3.9,0l3-1.8c1.1-.6,1.1-1.6,0-2.3l-3.1-1.8c-1.1-.6-2.8-.6-3.9,0l-3,1.8c-1.1.6-1.1,1.6,0,2.3ZM673.1,284.4l-3.1-1.8c-1.1-.6-2.8-.6-3.9,0l-3,1.8c-1.1.6-1.1,1.6,0,2.3l3.1,1.8c1.1.6,2.8.6,3.9,0l3-1.8c1.1-.6,1.1-1.6,0-2.3ZM686.1,291.9l-7-4c-1.1-.6-2.8-.6-3.9,0l-3,1.8c-1.1.6-1.1,1.6,0,2.3l7,4c1.1.6,2.8.6,3.9,0l3-1.8c1.1-.6,1.1-1.6,0-2.3ZM557.4,235.1l7,4c1.1.6,2.8.6,3.9,0l3-1.8c1.1-.6,1.1-1.6,0-2.3l-7-4c-1.1-.6-2.8-.6-3.9,0l-3,1.8c-1.1.6-1.1,1.6,0,2.3ZM570.2,242.5l3.1,1.8c1.1.6,2.8.6,3.9,0l3-1.8c1.1-.6,1.1-1.6,0-2.3l-3.1-1.8c-1.1-.6-2.8-.6-3.9,0l-3,1.8c-1.1.6-1.1,1.6,0,2.3ZM582.1,249.4c1.1.6,2.8.6,3.9,0l3-1.8c1.1-.6,1.1-1.6,0-2.3l-3.1-1.8c-1.1-.6-2.8-.6-3.9,0l-3,1.8c-1.1.6-1.1,1.6,0,2.3l3.1,1.8ZM591,254.5c1.1.6,2.8.6,3.9,0l3-1.8c1.1-.6,1.1-1.6,0-2.3l-3.1-1.8c-1.1-.6-2.8-.6-3.9,0l-3,1.8c-1.1.6-1.1,1.6,0,2.3l3.1,1.8ZM599.8,253.8l-3,1.8c-1.1.6-1.1,1.6,0,2.3l3.1,1.8c1.1.6,2.8.6,3.9,0l3-1.8c1.1-.6,1.1-1.6,0-2.3l-3.1-1.8c-1.1-.6-2.8-.6-3.9,0h0ZM608.9,258.8l-3.4,2c-1,.6-1,1.5,0,2l3.4,2c1,.6,2.6.6,3.5,0l3.4-2c1-.6,1-1.5,0-2l-3.4-2c-1-.6-2.6-.6-3.5,0ZM617.7,264l-3.4,2c-1,.6-1,1.5,0,2l3.4,2c1,.6,2.6.6,3.5,0l3.4-2c1-.6,1-1.5,0-2l-3.4-2c-1-.6-2.6-.6-3.5,0ZM626.6,269.1l-3.4,2c-1,.6-1,1.5,0,2l3.4,2c1,.6,2.6.6,3.5,0l3.4-2c1-.6,1-1.5,0-2l-3.4-2c-1-.6-2.6-.6-3.5,0ZM635.5,274.2l-3.4,2c-1,.6-1,1.5,0,2l3.4,2c1,.6,2.6.6,3.5,0l3.4-2c1-.6,1-1.5,0-2l-3.4-2c-1-.6-2.6-.6-3.5,0ZM644.3,279.3l-3.4,2c-1,.6-1,1.5,0,2l3.4,2c1,.6,2.6.6,3.5,0l3.4-2c1-.6,1-1.5,0-2l-3.4-2c-1-.6-2.6-.6-3.5,0ZM656.7,290.4l3.4-2c1-.6,1-1.5,0-2l-3.4-2c-1-.6-2.6-.6-3.5,0l-3.4,2c-1,.6-1,1.5,0,2l3.4,2c1,.6,2.6.6,3.5,0ZM665.6,295.6l3.4-2c1-.6,1-1.5,0-2l-3.4-2c-1-.6-2.6-.6-3.5,0l-3.4,2c-1,.6-1,1.5,0,2l3.4,2c1,.6,2.6.6,3.5,0ZM678.1,296.8l-3.4-2c-1-.6-2.6-.6-3.5,0l-3.4,2c-1,.6-1,1.5,0,2l3.4,2c1,.6,2.6.6,3.5,0l3.4-2c1-.6,1-1.5,0-2ZM549,239.7l11.1,6.4c1,.6,2.6.6,3.5,0l3.4-2c1-.6,1-1.5,0-2l-11.1-6.4c-1-.6-2.6-.6-3.5,0l-3.4,2c-1,.6-1,1.5,0,2ZM565.5,249.3l3.4,2c1,.6,2.6.6,3.5,0l3.4-2c1-.6,1-1.5,0-2l-3.4-2c-1-.6-2.6-.6-3.5,0l-3.4,2c-1,.6-1,1.5,0,2ZM574.4,254.4l3.4,2c1,.6,2.6.6,3.5,0l3.4-2c1-.6,1-1.5,0-2l-3.4-2c-1-.6-2.6-.6-3.5,0l-3.4,2c-1,.6-1,1.5,0,2ZM583.3,259.5l3.4,2c1,.6,2.6.6,3.5,0l3.4-2c1-.6,1-1.5,0-2l-3.4-2c-1-.6-2.6-.6-3.5,0l-3.4,2c-1,.6-1,1.5,0,2ZM599.1,266.6l3.4-2c1-.6,1-1.5,0-2l-3.4-2c-1-.6-2.6-.6-3.5,0l-3.4,2c-1,.6-1,1.5,0,2l3.4,2c1,.6,2.6.6,3.5,0ZM608,271.7l3.4-2c1-.6,1-1.5,0-2l-3.4-2c-1-.6-2.6-.6-3.5,0l-3.4,2c-1,.6-1,1.5,0,2l3.4,2c1,.6,2.6.6,3.5,0ZM616.8,276.9l3.4-2c1-.6,1-1.5,0-2l-3.4-2c-1-.6-2.6-.6-3.5,0l-3.4,2c-1,.6-1,1.5,0,2l3.4,2c1,.6,2.6.6,3.5,0ZM625.7,282l3.4-2c1-.6,1-1.5,0-2l-3.4-2c-1-.6-2.6-.6-3.5,0l-3.4,2c-1,.6-1,1.5,0,2l3.4,2c1,.6,2.6.6,3.5,0ZM634.6,287.1l3.4-2c1-.6,1-1.5,0-2l-3.4-2c-1-.6-2.6-.6-3.5,0l-3.4,2c-1,.6-1,1.5,0,2l3.4,2c1,.6,2.6.6,3.5,0ZM643.4,292.2l3.4-2c1-.6,1-1.5,0-2l-3.4-2c-1-.6-2.6-.6-3.5,0l-3.4,2c-1,.6-1,1.5,0,2l3.4,2c1,.6,2.6.6,3.5,0ZM645.3,295.3l3.4,2c1,.6,2.6.6,3.5,0l3.4-2c1-.6,1-1.5,0-2l-3.4-2c-1-.6-2.6-.6-3.5,0l-3.4,2c-1,.6-1,1.5,0,2ZM669.9,301.5l-8.8-5.1c-1-.6-2.6-.6-3.5,0l-3.4,2c-1,.6-1,1.5,0,2l8.8,5.1c1,.6,2.6.6,3.5,0l3.4-2c1-.6,1-1.5,0-2ZM540.8,244.7l15.8,9.1c1.1.6,2.9.6,4,0l3-1.7c1.1-.6,1.1-1.7,0-2.3l-15.8-9.1c-1.1-.6-2.9-.6-4,0l-3,1.7c-1.1.6-1.1,1.7,0,2.3ZM562.5,257.2l3,1.7c1.1.6,2.9.6,4,0l3-1.7c1.1-.6,1.1-1.7,0-2.3l-3-1.7c-1.1-.6-2.9-.6-4,0l-3,1.7c-1.1.6-1.1,1.7,0,2.3ZM571.3,262.3l3,1.7c1.1.6,2.9.6,4,0l3-1.7c1.1-.6,1.1-1.7,0-2.3l-3-1.7c-1.1-.6-2.9-.6-4,0l-3,1.7c-1.1.6-1.1,1.7,0,2.3ZM580.2,267.5l3,1.7c1.1.6,2.9.6,4,0l3-1.7c1.1-.6,1.1-1.7,0-2.3l-3-1.7c-1.1-.6-2.9-.6-4,0l-3,1.7c-1.1.6-1.1,1.7,0,2.3ZM589.1,272.6l3,1.7c1.1.6,2.9.6,4,0l3-1.7c1.1-.6,1.1-1.7,0-2.3l-3-1.7c-1.1-.6-2.9-.6-4,0l-3,1.7c-1.1.6-1.1,1.7,0,2.3ZM597.9,277.7l3,1.7c1.1.6,2.9.6,4,0l3-1.7c1.1-.6,1.1-1.7,0-2.3l-3-1.7c-1.1-.6-2.9-.6-4,0l-3,1.7c-1.1.6-1.1,1.7,0,2.3ZM606.8,282.8l3,1.7c1.1.6,2.9.6,4,0l3-1.7c1.1-.6,1.1-1.7,0-2.3l-3-1.7c-1.1-.6-2.9-.6-4,0l-3,1.7c-1.1.6-1.1,1.7,0,2.3ZM615.7,287.9l3,1.7c1.1.6,2.9.6,4,0l3-1.7c1.1-.6,1.1-1.7,0-2.3l-3-1.7c-1.1-.6-2.9-.6-4,0l-3,1.7c-1.1.6-1.1,1.7,0,2.3ZM624.5,293l3,1.7c1.1.6,2.9.6,4,0l3-1.7c1.1-.6,1.1-1.7,0-2.3l-3-1.7c-1.1-.6-2.9-.6-4,0l-3,1.7c-1.1.6-1.1,1.7,0,2.3ZM633.4,298.2l3,1.7c1.1.6,2.9.6,4,0l3-1.7c1.1-.6,1.1-1.7,0-2.3l-3-1.7c-1.1-.6-2.9-.6-4,0l-3,1.7c-1.1.6-1.1,1.7,0,2.3ZM642.2,303.3l3,1.7c1.1.6,2.9.6,4,0l3-1.7c1.1-.6,1.1-1.7,0-2.3l-3-1.7c-1.1-.6-2.9-.6-4,0l-3,1.7c-1.1.6-1.1,1.7,0,2.3ZM661.2,306.2l-3-1.7c-1.1-.6-2.9-.6-4,0l-3,1.7c-1.1.6-1.1,1.7,0,2.3l3,1.7c1.1.6,2.9.6,4,0l3-1.7c1.1-.6,1.1-1.7,0-2.3ZM546.5,249.5l-6.9-4c-1.1-.6-2.9-.6-4,0l-3,1.7c-1.1.6-1.1,1.7,0,2.3l6.9,4c1.1.6,2.9.6,4,0l3-1.7c1.1-.6,1.1-1.7,0-2.3ZM555.3,254.6l-3-1.7c-1.1-.6-2.9-.6-4,0l-3,1.7c-1.1.6-1.1,1.7,0,2.3l3,1.7c1.1.6,2.9.6,4,0l3-1.7c1.1-.6,1.1-1.7,0-2.3h0ZM564.2,259.7l-3-1.7c-1.1-.6-2.9-.6-4,0l-3,1.7c-1.1.6-1.1,1.7,0,2.3l3,1.7c1.1.6,2.9.6,4,0l3-1.7c1.1-.6,1.1-1.7,0-2.3ZM626.2,295.5l-56.2-32.4c-1.1-.6-2.9-.6-4,0l-3,1.7c-1.1.6-1.1,1.7,0,2.3l56.2,32.4c1.1.6,2.9.6,4,0l3-1.7c1.1-.6,1.1-1.7,0-2.3ZM635.1,300.6l-3-1.7c-1.1-.6-2.9-.6-4,0l-3,1.7c-1.1.6-1.1,1.7,0,2.3l3,1.7c1.1.6,2.9.6,4,0l3-1.7c1.1-.6,1.1-1.7,0-2.3ZM644,305.7l-3-1.7c-1.1-.6-2.9-.6-4,0l-3,1.7c-1.1.6-1.1,1.7,0,2.3l3,1.7c1.1.6,2.9.6,4,0l3-1.7c1.1-.6,1.1-1.7,0-2.3ZM653,311l-3-1.7c-1.1-.6-2.9-.6-4,0l-3,1.7c-1.1.6-1.1,1.7,0,2.3l3,1.7c1.1.6,2.9.6,4,0l3-1.7c1.1-.6,1.1-1.7,0-2.3Z"/>
          <g>
            <path class="st37" d="M701.4,286.7l-117.4-67.8c-4.5-2.6-8.2-9.7-8.2-15.7v-92.1c0-6.1,3.7-8.8,8.2-6.2l117.4,67.8c4.5,2.6,8.2,9.7,8.2,15.7v92.1c0,6.1-3.7,8.8-8.2,6.2Z"/>
            <path class="st46" d="M702.5,282l-116.1-67.1c-3.7-2.3-5.9-7-5.9-11.7v-92.5c0-1.1,1.2-1.8,2.2-1.3,0,0,.2,0,.3.2l116.2,67.2c4.4,2.5,5.9,7,5.9,11.7v92.3c0,1.2-1.3,2-2.4,1.4,0,0,0,0-.2-.1h0Z"/>
            <path class="st44" d="M699.1,176.7l-116.2-67.2s0,0-.3-.2c-1-.6-2.2,0-2.2,1.3v92.5c0,4.8,2.3,9.4,5.9,11.7l116.1,67.1s0,0,.2.1c1,.6,2.4-.2,2.4-1.4v-92.3c0-4.8-1.6-9.2-5.9-11.7h0ZM704.1,280.7c0,.4-.3.7-.7.7s-.2,0-.3,0l-116.3-67.2c-3.3-2.1-5.5-6.4-5.5-10.9v-92.5c0-.3.3-.5.5-.5h.3l116.5,67.3c4.5,2.6,5.5,7.4,5.5,10.9v92.3h0Z"/>
            <path class="st48" d="M703.8,171.4l-117.4-67.8c-1.8-1-3.5-1.2-4.8-.7-.2,0-2.5,1.3-2.6,1.4h0c1.4-.7,3.2-.6,5.1.6l117.4,67.8c4.5,2.6,8.2,9.7,8.2,15.7v92.1c0,3.8-1.4,6.3-3.6,7,.2,0,.4,0,.7-.2,0,0,2.6-1.5,2.7-1.5,1.6-1.1,2.5-3.3,2.5-6.5v-92.1c0-6.1-3.7-13.1-8.2-15.7h0Z"/>
            <path class="st38" d="M703.8,171.4l-117.4-67.8c-1.8-1-3.5-1.2-4.8-.7-.2,0-2.5,1.3-2.6,1.4h0c1.4-.7,3.2-.6,5.1.6l117.4,67.8,2.3-1.2h0Z"/>
            <path class="st34" d="M701.8,172.5l-117.4-67.8c-1.9-1.1-3.6-1.2-5-.6,1.2-.2,2.5,0,4,.9l117.4,67.8c4.5,2.6,8.2,9.7,8.2,15.7v92.1c0,3.6-1.3,6-3.3,6.9,2.5-.4,4.3-3,4.3-7.2v-92.1c0-6.1-3.7-13.1-8.2-15.7h0Z"/>
          </g>
        </g>
        <g>
          <path class="st15" d="M605.5,169.2v5.4c-.4-.2-2.3-1.3-2.7-1.5v-5.4c.4.2,2.3,1.3,2.7,1.5Z"/>
          <polygon class="st32" points="600.5 166.2 601.8 167.1 601.8 172.5 600.5 171.7 600.5 166.2"/>
          <path class="st24" d="M637,177.1l23.3-2.1-27.3-3.6c-7.6-1-15.7-3.9-23.8-8.7l-2.9-1.7v-5.4l2.2,1.3c8.5,5,17,8,25,8.8l14.2,1.5c8,.8,16.5,3.8,25,8.8l2.1,1.2v11.6c-10.8-5.7-21.3-8.2-30.8-7.2l-6.8.7c-9.5,1-20.1-1.5-30.9-7.2v-5.4c10.7,5.8,21.2,8.3,30.7,7.5h0Z"/>
          <polygon class="st15" points="605.5 155.1 605.5 160.5 602.8 159 602.8 153.5 605.5 155.1"/>
          <polygon class="st32" points="600.5 152.2 601.8 153 601.8 158.4 600.5 157.6 600.5 152.2"/>
          <path class="st15" d="M678.4,179.3v11.5l-2.5-1.5c0,0-.2-.1-.3-.2v-11.5l2.8,1.6h0Z"/>
          <polygon class="st32" points="680.8 180.6 680.8 192.1 679.3 191.2 679.3 179.8 680.8 180.6"/>
          <polygon class="st32" points="680.8 194.4 680.8 201.2 679.3 200.3 679.3 193.5 680.8 194.4"/>
          <polygon class="st17" points="678.4 193 678.4 199.9 675.6 198.2 675.6 191.4 678.4 193"/>
          <path class="st26" d="M607.3,131c9.6,5.6,19.1,13.6,27.9,23.5l11.1,12.5c8.8,9.9,18.3,17.9,27.9,23.5l.4.2v6.8c-10.2-6.1-20.2-14.9-29.4-25.8l-9.1-10.7c-9.4-11.1-19.6-20-30-26.1v-4.6l1,.6h.2Z"/>
          <polygon class="st17" points="605.5 129.9 605.5 134.6 602.8 133 602.8 128.4 605.5 129.9"/>
          <polygon class="st32" points="600.5 127 601.8 127.8 601.8 132.4 600.5 131.6 600.5 127"/>
          <polygon class="st32" points="680.8 223.4 680.8 246.6 679.3 245.7 679.3 222.6 680.8 223.4"/>
          <polygon class="st28" points="678.4 222.1 678.4 245.2 675.6 243.6 675.6 220.5 678.4 222.1"/>
          <polygon class="st28" points="605.5 204.3 605.5 209 602.8 207.4 602.8 202.7 605.5 204.3"/>
          <polygon class="st32" points="600.5 201.3 601.8 202.1 601.8 206.9 600.5 206.1 600.5 201.3"/>
          <polygon class="st28" points="605.5 177 605.5 186.3 602.8 184.7 602.8 175.5 605.5 177"/>
          <polygon class="st32" points="600.5 174.1 601.8 174.9 601.8 184.2 600.5 183.4 600.5 174.1"/>
          <polygon class="st28" points="605.5 210.6 605.5 214.3 602.8 212.7 602.8 209 605.5 210.6"/>
          <polygon class="st32" points="600.5 207.6 601.8 208.5 601.8 212.1 600.5 211.3 600.5 207.6"/>
          <polygon class="st32" points="600.5 159.4 601.8 160.2 601.8 164.4 600.5 163.6 600.5 159.4"/>
          <polygon class="st28" points="605.5 162.3 605.5 166.6 602.8 165 602.8 160.8 605.5 162.3"/>
          <path class="st21" d="M612.7,214.8c5.8,3.4,11.6,5.9,17.2,7.4l30.7,8.1-31.7-9.7c-5-1.5-10.1-3.8-15.2-6.8l-7.4-4.3v-4.7l7.8,4.5c4.9,2.8,9.7,5,14.5,6.6l31.2,9.9-32.7-25.8c-3.7-2.9-7.5-5.5-11.3-7.8l-9.4-5.5v-9.3l9.9,5.8c3.5,2,6.9,4.4,10.4,7l32.5,25-25.9-27.1c-7.8-8.2-16.1-14.8-24.4-19.7l-2.5-1.5v-4.2l2.9,1.7c8.1,4.7,16.1,11.1,23.7,19l15.3,15.8c7.6,7.9,15.6,14.3,23.7,19l2.8,1.6v23.1l-6.7-3.9c-5.5-3.2-11-5.6-16.4-7.1l-22.2-6.3c-5.4-1.5-10.9-3.9-16.4-7.1l-6.8-4v-3.7l6.4,3.7v.3Z"/>
          <polygon class="st32" points="680.8 203.5 680.8 221.2 679.3 220.3 679.3 202.6 680.8 203.5"/>
          <polygon class="st31" points="678.4 202.1 678.4 219.8 675.6 218.2 675.6 200.5 678.4 202.1"/>
          <polygon class="st31" points="605.5 188.5 605.5 193.2 602.8 191.7 602.8 186.9 605.5 188.5"/>
          <polygon class="st32" points="600.5 185.6 601.8 186.4 601.8 191.1 600.5 190.3 600.5 185.6"/>
          <path class="st25" d="M609.9,191.1c7.6,4.4,15.2,7.3,22.4,8.5l27.8,4.5-26.6-28.2c-8-8.5-16.5-15.4-25.1-20.4l-2.1-1.3v-9.3l.5.3c9.7,5.6,19.2,13.7,28,23.7l24.9,28.1-23.9-28.4c-9.2-10.9-19.3-19.8-29.5-25.9v-5.4c10.2,6.1,20.2,14.8,29.4,25.6l9.8,11.5c9.2,10.8,19.1,19.5,29.3,25.6v17.7l-3.7-2.1c-7.5-4.4-15-7.2-22.1-8.4l-16.8-2.8c-7.1-1.2-14.6-4-22.1-8.4l-3.8-2.2v-4.7l3.6,2.1h0Z"/>
          <polygon class="st31" points="605.5 144.4 605.5 153.7 602.8 152.1 602.8 142.9 605.5 144.4"/>
          <polygon class="st32" points="600.5 141.5 601.8 142.3 601.8 151.6 600.5 150.7 600.5 141.5"/>
          <path class="st31" d="M605.4,136.7h.2v5.4c0,0-.2-.1-.4-.2l-2.3-1.4v-5.4l2.5,1.5h0Z"/>
          <polygon class="st32" points="600.5 133.8 601.8 134.7 601.8 140.1 600.5 139.3 600.5 133.8"/>
          <polygon class="st32" points="680.8 249.1 680.8 258.1 679.3 257.2 679.3 248.2 680.8 249.1"/>
          <polygon class="st29" points="678.4 247.7 678.4 256.8 675.6 255.1 675.6 246.1 678.4 247.7"/>
          <polygon class="st29" points="605.5 195 605.5 203.1 602.8 201.5 602.8 193.4 605.5 195"/>
          <polygon class="st32" points="600.5 192 601.8 192.9 601.8 200.9 600.5 200.1 600.5 192"/>
          <path class="st33" d="M614,200c4.9,2.9,9.8,6.4,14.6,10.4l23.9,20.3c4.8,4.1,9.7,7.6,14.6,10.4l7.6,4.4v9.1l-6.9-4c-5.4-3.1-10.7-7-16-11.6l-22.6-19.8c-5.2-4.6-10.6-8.5-16-11.6l-7-4.1v-8.1l7.7,4.5h.1Z"/>
        </g>
      </g>
      <g>
        <g class="st23">
          <path class="st59" d="M402.3,237.1v15.6c0,2.5-1.7,5.1-5,7l-50.6,29.4c-6.7,3.9-17.6,3.9-24.3,0l-50.9-29.4c-3.4-2-5.1-4.6-5.1-7.1v-15.6c0,2.6,1.8,5.1,5.2,7.1l49.9,28.5c6.7,3.9,17.6,3.9,24.3,0l51.7-28.5c3.3-1.9,5-4.5,5-7h-.2Z"/>
          <path class="st39" d="M397.2,230c6.7,3.9,6.8,10.2,0,14.1l-50.6,29.4c-6.7,3.9-17.6,3.9-24.3,0l-50.9-29.4c-6.7-3.9-6.8-10.2,0-14.1l50.6-29.4c6.7-3.9,17.6-3.9,24.3,0l50.9,29.4Z"/>
        </g>
        <g class="st23">
          <path class="st38" d="M392.7,229.6v6.7c0,2.2-1.5,4.4-4.3,6l-43.5,25.3c-5.7,3.3-15.1,3.3-20.9,0l-43.8-25.3c-2.9-1.7-4.4-3.9-4.4-6.1v-6.7c0,2.2,1.5,4.4,4.4,6.1l41.7,23c5.7,3.3,15.1,3.3,20.9,0l45.5-23c2.8-1.6,4.3-3.8,4.3-6h0Z"/>
          <path class="st57" d="M324.1,260.9v6.7l-43.8-25.3c-2.9-1.7-4.4-3.9-4.4-6.1v-6.7c0,2.2,1.5,4.4,4.4,6.1l43.8,25.3Z"/>
          <path class="st37" d="M388.3,223.5c5.8,3.3,5.8,8.7,0,12.1l-43.5,25.3c-5.7,3.3-15.1,3.3-20.9,0l-43.8-25.3c-5.8-3.3-5.8-8.7,0-12.1l43.5-25.3c5.7-3.3,15.1-3.3,20.9,0l43.8,25.3h0Z"/>
        </g>
        <g class="st23">
          <path class="st48" d="M529,99.6v8.7l-8.4,1.3-4.4-9.6-14.2-2.2-7.3,4.3.6,1.4,16.6,2.5v8.7l-2.2,4.8-21.4-3.3-6.3-13.8v-4.5l-7.1-4.1c1.7-1.4,2.8-3.8,2.8-7.1l9.7-5.6,8.1,4.8,3.9-2.3,23.8,3.7,5.7,12.4h.1Z"/>
        </g>
        <g class="st23">
          <polygon class="st38" points="502 89.1 502 97.7 516.2 99.9 516.2 91.3 502 89.1"/>
          <path class="st38" d="M485.9,91.3v8.7l-10.9-6.3c1.7-1.3,2.7-3.8,2.8-7.1l8.2,4.7h-.1Z"/>
          <polygon class="st57" points="491.6 95.1 491.6 103.7 502 97.7 502 89.1 491.6 95.1"/>
          <polygon class="st48" points="516.2 91.3 516.2 99.9 520.6 109.6 520.6 100.9 516.2 91.3"/>
          <polygon class="st57" points="520.6 100.9 520.6 109.6 529 108.3 529 99.6 520.6 100.9"/>
          <polygon class="st48" points="482 93.6 482 102.3 488.3 116.1 488.3 107.4 482 93.6"/>
          <polygon class="st57" points="509.7 110.7 509.7 119.4 511.9 114.6 511.9 105.9 509.7 110.7"/>
          <polygon class="st38" points="488.3 107.4 488.3 116.1 509.7 119.4 509.7 110.7 488.3 107.4"/>
          <polygon class="st37" points="477.7 86.6 485.8 91.4 482 93.6 488.3 107.4 509.7 110.7 511.9 105.9 495.3 103.3 491.6 95.1 502 89.1 516.2 91.3 520.6 100.9 529 99.6 523.3 87.2 499.5 83.5 495.5 85.8 487.4 81 477.7 86.6"/>
        </g>
        <g class="st23">
          <path class="st52" d="M490.2,79.2c0,3.7-1.3,6.3-3.4,7.6l-16.5,9.6c.2,0,.5-.3.7-.5-2.1,1.7-5.4,1.7-9-.4-4.3-2.5-8-7.2-10-12.4l-28-16.2-2.2,1.3c.2,0,.3-.2.5-.4-1.9,1.5-4.6,1.6-7.7,0l-26.9,15.5c1.4,6.6-2.7,17.8-10.6,23.8l-21.4,73.3h.1l9.1,5.3c3.2,1.8,5.1,5.7,5.1,11.3v32.4c.1,0-35.1,20.3-35.1,20.3l-9.1-5.3v-20.9l-18.1,10.4-9.1-5.3v-32.4c-.1-11.2,7.7-24.8,17.4-30.4,4.9-2.8,9.3-3.1,12.5-1.2l3.3,1.9,19.3-66c-.9-.8-1.5-1.8-1.9-3.1h0l-5.1-3c-2.1-1.2-3.4-3.8-3.4-7.5,0-7.4,5.2-16.4,11.7-20.2,3.2-1.9,6.2-2.1,8.3-.8l2.2,1.3,39-22.6c.5-2.7,1.8-4.6,3.7-5.4l16-9.4c2.1-1.2,5.1-1.1,8.4.8,4.3,2.5,8,7.3,10,12.4l28.1,16.2,2.2-1.3c2.1-1.3,5-1.1,8.3.8,6.5,3.7,11.7,12.8,11.7,20.3h-.1Z"/>
        </g>
        <g>
          <g class="st23">
            <path class="st54" d="M438.2,58.7l-16.5,9.6c.7-.4,1.2-.9,1.7-1.6l16.5-9.6c-.5.6-1.1,1.2-1.7,1.6Z"/>
            <path class="st59" d="M413.4,49.5c2.1,1.2,3.9,4.2,3.9,6.7s-1.8,3.4-3.9,2.2-3.9-4.2-3.9-6.7,1.7-3.4,3.9-2.2Z"/>
            <path class="st56" d="M405.1,39.7l16.5-9.6c2.1-1.2,5.1-1.1,8.4.8,4.3,2.5,8,7.3,10,12.4l-16.5,9.6c-2-5.1-5.8-9.9-10-12.4-3.3-1.9-6.2-2.1-8.4-.8Z"/>
            <polygon class="st54" points="423.5 52.8 440 43.3 468.5 59.7 452 69.3 423.5 52.8"/>
            <path class="st52" d="M462.1,68.5c6.5,3.7,11.7,12.8,11.7,20.3s-5.3,10.5-11.8,6.7c-4.3-2.5-8-7.2-10-12.3l-28.5-16.5c-2.1,2.7-5.8,3.2-10.1.7-6.5-3.7-11.7-12.8-11.7-20.3s5.3-10.5,11.8-6.7c4.3,2.5,8,7.3,10,12.4l28.5,16.5c2.1-2.7,5.8-3.2,10-.8h.1ZM413.4,58.4c2.1,1.2,3.9.2,3.9-2.2s-1.7-5.4-3.9-6.7c-2.1-1.2-3.9-.2-3.9,2.2s1.7,5.5,3.9,6.7h0ZM462,86.5c2.1,1.2,3.9.2,3.9-2.2s-1.7-5.4-3.9-6.7c-2.1-1.2-3.9-.2-3.9,2.2s1.7,5.5,3.8,6.7h.1Z"/>
            <path class="st39" d="M462,77.6c2.1,1.2,3.9,4.2,3.9,6.7s-1.7,3.5-3.9,2.2c-2.1-1.2-3.9-4.2-3.8-6.7,0-2.4,1.7-3.4,3.9-2.2h-.1Z"/>
            <path class="st56" d="M453.8,67.7l16.5-9.6c2.1-1.2,5.1-1.1,8.3.8l-16.5,9.6c-3.2-1.9-6.2-2-8.3-.8Z"/>
            <path class="st56" d="M486.8,86.8l-16.5,9.6c2.1-1.2,3.4-3.8,3.4-7.5,0-7.4-5.2-16.5-11.7-20.3l16.5-9.6c6.5,3.7,11.7,12.8,11.7,20.3s-1.3,6.3-3.4,7.5Z"/>
          </g>
          <g class="st23">
            <polygon class="st54" points="376.7 76 362.4 67.7 405.7 42.7 420 51 376.7 76"/>
            <path class="st59" d="M366.7,84.3c2.1-1.2,3.9-.2,3.9,2.2s-1.7,5.4-3.8,6.7c-2.1,1.2-3.9.2-3.9-2.2s1.7-5.4,3.8-6.7Z"/>
            <path class="st61" d="M420,64.8l-43.3,25c-2,5.1-5.7,9.8-10,12.3-6.5,3.7-11.7.7-11.7-6.7s5.2-16.4,11.6-20.2c4.2-2.5,8-2,10,.7l43.3-25v13.8h.1ZM366.7,93.1c2.1-1.2,3.9-4.2,3.8-6.7,0-2.5-1.7-3.4-3.9-2.2-2.1,1.2-3.9,4.2-3.8,6.7,0,2.5,1.8,3.4,3.9,2.2h0Z"/>
            <path class="st61" d="M358.4,102.9l-14.3-8.3c-2.1-1.2-3.4-3.8-3.4-7.5,0-7.4,5.2-16.4,11.6-20.2,3.2-1.9,6.2-2,8.3-.8l14.3,8.3c-2.1-1.2-5-1.1-8.3.8-6.5,3.7-11.7,12.8-11.6,20.2,0,3.7,1.3,6.3,3.4,7.5Z"/>
          </g>
          <g class="st23">
            <polygon class="st56" points="307.7 234.1 298.6 228.9 298.5 196.5 307.6 201.7 307.7 234.1"/>
            <path class="st56" d="M328.5,164.8l9.1,5.3c-3.2-1.9-7.6-1.6-12.5,1.2l-9.1-5.3c4.9-2.8,9.3-3.1,12.5-1.2Z"/>
            <path class="st56" d="M307.6,201.7l-9.1-5.3c0-11.2,7.8-24.8,17.6-30.4l9.1,5.3c-9.7,5.6-17.6,19.2-17.6,30.4Z"/>
            <path class="st52" d="M325.1,171.3c9.7-5.6,17.6-1.1,17.6,10.1v32.4c.1,0-35.1,20.3-35.1,20.3v-32.4c-.1-11.2,7.7-24.8,17.4-30.4h.1Z"/>
          </g>
          <g class="st23">
            <path class="st59" d="M345.6,194.5c3.1-.3,4.6,2.9,3.3,7.1-1.1,3.8-4.4,8-7.8,8.3-3.1.3-4.6-2.8-3.3-7.1,1.1-3.7,4.4-8,7.8-8.3Z"/>
            <path class="st61" d="M332.4,221.1l-13.6-7.9c-4.3-2.5-5.8-9.1-3.4-17.4,2.3-7.9,7.7-15.2,13.5-18.9l13.6,7.9c-5.8,3.7-11.2,11-13.5,18.9-2.4,8.2-.9,14.9,3.4,17.4Z"/>
            <polygon class="st54" points="342.5 184.9 328.9 177 351.2 100.7 364.7 108.6 342.5 184.9"/>
            <path class="st39" d="M376.6,88.4c2.2-.2,3.2,2,2.4,5-.7,2.3-2.3,4.4-3.9,5.3-3,1.8-5.1-.7-4-4.5.8-2.6,3.1-5.6,5.5-5.9h0Z"/>
            <path class="st56" d="M370.6,70.2l13.6,7.9c-1.2-.7-2.6-1-4.3-.8l-13.6-7.9c1.7-.2,3.1,0,4.3.8Z"/>
            <path class="st52" d="M379.8,77.3c6.6-.7,9.8,6.1,7.1,15.2-1.8,6-5.6,11.5-9.9,14.8l-22.2,76.2c3.9,2.7,5.3,9.1,3,17.1-2.4,8.3-8.2,15.9-14.4,19.4-1.9,1.1-3.9,1.8-5.8,2-8,.9-11.8-7.3-8.6-18.3,2.3-7.9,7.7-15.2,13.5-18.9l22.3-76.3c-2.6-2.5-3.4-7.5-1.7-13.5,2-6.9,6.9-13.2,11.9-16.1,1.6-.9,3.3-1.5,4.8-1.7h0ZM348.9,201.6c1.2-4.3-.2-7.4-3.3-7.1-3.5.4-6.8,4.7-7.8,8.3-1.2,4.3.2,7.4,3.3,7.1,3.4-.3,6.7-4.6,7.8-8.3h0ZM379,93.4c1.1-3.9-1-6.2-4-4.5-1.7,1-3.3,3-3.9,5.3-.9,3,.2,5.2,2.4,5,.5,0,1.1-.3,1.6-.6,1.7-1,3.3-3,3.9-5.3h0Z"/>
            <path class="st56" d="M364.7,108.6l-13.6-7.9c-2.6-2.5-3.4-7.5-1.7-13.5,2-6.9,6.9-13.2,11.9-16.1,1.6-.9,3.3-1.5,4.8-1.7l13.6,7.9c-1.6.2-3.2.8-4.8,1.7-5.1,2.9-9.9,9.2-11.9,16.1-1.7,6-1,11,1.7,13.5Z"/>
          </g>
          <g class="st23">
            <polygon class="st56" points="334.9 249.9 325.8 244.7 325.7 212.3 334.8 217.5 334.9 249.9"/>
            <path class="st56" d="M355.8,180.6l9.1,5.3c-3.2-1.9-7.6-1.6-12.5,1.2l-9.1-5.3c4.9-2.8,9.3-3.1,12.5-1.2Z"/>
            <path class="st56" d="M334.8,217.5l-9.1-5.3c0-11.2,7.8-24.8,17.6-30.4l9.1,5.3c-9.7,5.6-17.6,19.2-17.6,30.4Z"/>
            <path class="st52" d="M352.3,187.1c9.7-5.6,17.6-1.1,17.6,10.1v32.4c.1,0-35.1,20.3-35.1,20.3v-32.4c-.1-11.2,7.7-24.8,17.4-30.4h.1Z"/>
          </g>
        </g>
        <path class="st59" d="M352.4,199.7c-3.7,2.1-6.7,7.3-6.7,11.5s3,6,6.7,3.8c3.7-2.1,6.7-7.3,6.6-11.6,0-4.2-3-5.9-6.7-3.8h.1Z"/>
        <g class="st23">
          <path class="st59" d="M385.4,227v2.2c0,.6-.4,1.2-1.2,1.6-1.6.9-4.1.9-5.7,0-.8-.5-1.2-1.1-1.2-1.7v-2.2c0,.6.4,1.2,1.2,1.7,1.6.9,4.1.9,5.7,0,.8-.5,1.2-1,1.2-1.6Z"/>
          <path class="st39" d="M384.2,225.3c1.6.9,1.6,2.4,0,3.3s-4.1.9-5.7,0-1.6-2.4,0-3.3,4.1-.9,5.7,0Z"/>
        </g>
        <g class="st23">
          <path class="st59" d="M338.4,254.1v2.2c0,.6-.4,1.2-1.2,1.6-1.6.9-4.1.9-5.7,0-.8-.5-1.2-1.1-1.2-1.7v-2.2c0,.6.4,1.2,1.2,1.7,1.6.9,4.1.9,5.7,0,.8-.5,1.2-1,1.2-1.6Z"/>
          <path class="st39" d="M337.2,252.4c1.6.9,1.6,2.4,0,3.3s-4.1.9-5.7,0c-1.6-.9-1.6-2.4,0-3.3s4.1-.9,5.7,0Z"/>
        </g>
        <g class="st23">
          <path class="st59" d="M283.2,227v2.2c0,.6.4,1.2,1.2,1.6,2.5,1.4,6.9.5,6.9-1.7v-2.2c0,2.2-4.5,3.1-6.9,1.7-.8-.5-1.2-1-1.2-1.6Z"/>
          <path class="st39" d="M284.4,225.3c-1.6.9-1.6,2.4,0,3.3,1.6.9,4.1.9,5.7,0s1.6-2.4,0-3.3-4.1-.9-5.7,0Z"/>
        </g>
        <path class="st50" d="M322.4,273.5v15.6l-51-29.4c-3.4-2-5.1-4.6-5.1-7.1v-15.6c0,2.6,1.8,5.1,5.2,7.1l50.9,29.4Z"/>
      </g>
      <line class="st0" x1="-693" y1="401" x2="-693" y2="275"/>
      <g>
        <line class="st3" x1="383" y1="496" x2="382" y2="495.8"/>
        <line class="st1" x1="357.4" y1="490.9" x2="129.3" y2="445.4"/>
        <polyline class="st3" points="117 442.9 116 442.7 116 441.7"/>
        <line class="st8" x1="116" y1="417.6" x2="116" y2="325.1"/>
        <line class="st3" x1="116" y1="313" x2="116" y2="312"/>
      </g>
      <g>
        <line class="st3" x1="383" y1="496" x2="382.4" y2="495.2"/>
        <polyline class="st10" points="369 476.6 344 442.1 344 322.5"/>
        <line class="st3" x1="344" y1="311" x2="344" y2="310"/>
      </g>
      <g>
        <line class="st3" x1="381" y1="496.9" x2="382" y2="496.7"/>
        <line class="st9" x1="404.7" y1="491.4" x2="565.6" y2="454.3"/>
        <polyline class="st3" points="576.9 451.7 577.9 451.5 577.9 450.5"/>
        <line class="st6" x1="577.9" y1="424.7" x2="577.9" y2="353.9"/>
        <line class="st3" x1="577.9" y1="341" x2="577.9" y2="340"/>
      </g>
      <g>
        <path class="st27" d="M447.2,837.3l-29.2-142.8c-4.7-2.5,29.4-29.5,34.9-32.4l-63.9-91.5c5.4-2.9,13.7-3.2,18.4-.7l246.2,130.7v69.2l-82.1,46.5c-5.4,2.9-118.6,23-124.3,21Z"/>
        <ellipse class="st16" cx="254.9" cy="776" rx="36.5" ry="20.6"/>
        <path class="st22" d="M131.8,677.9l267.9,141.6c29.3,15.5,64.7,13.7,92.2-4.8l99.4-66.4-326.7-201.2-132.8,130.8h0Z"/>
        <path class="st48" d="M144.6,519.6l1.4,167.5,144.5-75.6c9.2-5.6,7.3-22.4,7.3-32.8l-.2-120.2-153,61.2h0Z"/>
        <ellipse class="st38" cx="240.6" cy="768.9" rx="36.5" ry="20.6"/>
        <path class="st51" d="M240.6,650.2h0c5.5,0,9.9,4.5,9.9,10v105.8c0,5.5-4.5,10-9.9,10h0c-5.5,0-9.9-4.5-9.9-10v-105.8c0-5.5,4.5-10,9.9-10Z"/>
        <path class="st42" d="M230.7,715v-65.8c0-3.5,4-6.4,8.9-6.4h2c4.9,0,8.9,2.9,8.9,6.4v76.9c0,3.5-19.9-7.6-19.9-11.1h.1Z"/>
        <path class="st48" d="M303.5,676.5c0,18.6-29.5,33.7-65.8,33.7s-65.8-15.1-65.8-33.7-.7-12.6,0-14.5c5.4-15.8,33.4-19.3,65.8-19.3s60.3,2.6,65.2,18.8c.5,1.7.6,13.2.6,15Z"/>
        <ellipse class="st38" cx="237.7" cy="662.1" rx="65.8" ry="33.7"/>
        <path class="st7" d="M303.6,664.5c0,18.6-29.5,33.7-65.8,33.7s-65.8-15.1-65.8-33.7"/>
        <path class="st38" d="M598.8,581.8h-20.1l-284.1-150.8c-4.7-2.5-13-2.2-18.4.7l-126.1,66.9h-18.8v12.5c-.3,1.8.7,3.6,3.1,4.9l301,159.8c4.7,2.5,13,2.2,18.4-.7l140.5-74.6c3.1-1.6,4.6-3.7,4.5-5.7h0v-13h0Z"/>
        <path class="st37" d="M446.3,662.4c-6.7,0-13-.9-18.7-2.9l-293.2-156c-4.7-2.5-4.1-6.9,1.3-9.8l140.5-74.6c5.4-2.9,13.7-3.2,18.4-.7l301,159.8c4.7,2.5,4.1,6.9-1.3,9.8l-135.6,76.8c-5.4,2.9-7.7,0-12.4-2.5h0Z"/>
        <path class="st48" d="M445.8,662.4v6.7l1.4,168.2c6.2-.4,13.7-1.5,20.5-5.1l125.5-75.7c9.2-5.6,5.8-10,5.8-20.4l-.2-154.4c-62.7,37.1-138,85.2-153,80.7h0Z"/>
        <path class="st38" d="M447.1,837.3c-6.1.2-11.4,0-14.5-1.6l-.3-167.6,13.5,7.9,1.3,161.3Z"/>
        <path class="st38" d="M146,687.1l-12.7-7.1c-1.2-.6-1.6-3-1.6-4.4l-.5-167.6,13.5,7.9,1.3,171.1h0Z"/>
        <path class="st43" d="M457.1,541.7"/>
        <g>
          <path class="st19" d="M549.5,557.8l-50.4-27.3c-2.1-1.1-6.5-.8-9.7.8l-11.7,5.6c-3.3,1.6-4.2,3.7-2.1,4.9l3,1.6,47.4,25.6c2.1,1.1,6.5.8,9.7-.8l4.9-2.3,6.8-3.3c3.3-1.6,4.2-3.7,2.1-4.9h0Z"/>
          <path class="st2" d="M540.1,540.8l6.8-3.3c3.3-1.6,4.2-3.7,2.1-4.9l-50.4-27.3c-2.1-1.1-6.5-.8-9.7.8l-11.7,5.6c-3.3,1.6-4.2,3.7-2.1,4.9l3,1.6"/>
          <polyline class="st2" points="474 515.4 474 540.7 491.5 530.3 491.5 506"/>
          <path class="st60" d="M491.2,532.9h0c-2.8,0-5.1-2.3-5.1-5.1v-28.5c0-2.8,2.3-5.1,5.1-5.1h0c2.8,0,5.1,2.3,5.1,5.1v28.5c0,2.8-2.3,5.1-5.1,5.1Z"/>
          <path class="st49" d="M491.2,530.1h0c-1.7,0-3.1-1.4-3.1-3.1v-17.5c0-1.7,1.4-3.1,3.1-3.1h0c1.7,0,3.1,1.4,3.1,3.1v17.5c0,1.7-1.4,3.1-3.1,3.1Z"/>
          <path class="st60" d="M512.1,542h0c-2.8,0-5.1-2.3-5.1-5.1v-28.5c0-2.8,2.3-5.1,5.1-5.1h0c2.8,0,5.1,2.3,5.1,5.1v28.5c0,2.8-2.3,5.1-5.1,5.1Z"/>
          <path class="st60" d="M540.1,517.4c0,2.1-3.7,3.8-8.2,3.8s-8.2-1.7-8.2-3.8,3.7-3.8,8.2-3.8,8.2,1.7,8.2,3.8Z"/>
          <path class="st60" d="M520.8,506c0,2.1-3.7,3.8-8.2,3.8s-8.2-1.7-8.2-3.8,3.7-3.8,8.2-3.8,8.2,1.7,8.2,3.8Z"/>
          <path class="st60" d="M499.4,497.4c0,2.1-3.7,3.8-8.2,3.8s-8.2-1.7-8.2-3.8,3.7-3.8,8.2-3.8,8.2,1.7,8.2,3.8Z"/>
          <path class="st60" d="M531.9,552.9h0c-2.8,0-5.1-2.3-5.1-5.1v-28.5c0-2.8,2.3-5.1,5.1-5.1h0c2.8,0,5.1,2.3,5.1,5.1v28.5c0,2.8-2.3,5.1-5.1,5.1Z"/>
          <path class="st2" d="M474,530.6l51.5,28c2.1,1.1,6.5.8,9.7-.8l14.9-7.9"/>
          <path class="st41" d="M512.1,538.2h0c-1.7,0-3.1-1.4-3.1-3.1v-17.5c0-1.7,1.4-3.1,3.1-3.1h0c1.7,0,3.1,1.4,3.1,3.1v17.5c0,1.7-1.4,3.1-3.1,3.1Z"/>
          <path class="st47" d="M531.9,550.2h0c-1.7,0-3.1-1.4-3.1-3.1v-17.5c0-1.7,1.4-3.1,3.1-3.1h0c1.7,0,3.1,1.4,3.1,3.1v17.5c0,1.7-1.4,3.1-3.1,3.1Z"/>
          <path class="st2" d="M478.1,518.2l47.4,25.6c2.1,1.1,6.5.8,9.7-.8l4.9-2.3"/>
          <polyline class="st2" points="532.6 544 532.6 570.7 550.2 560.3 550.2 534.5"/>
          <path class="st4" d="M486.5,497.4s.4-2,4.7-2,5.3,1.6,5.3,1.6"/>
          <path class="st4" d="M507.5,506.6s.4-2,4.7-2,5.3,1.6,5.3,1.6"/>
          <path class="st4" d="M526.9,517.3s.4-2,4.7-2,5.3,1.6,5.3,1.6"/>
          <path class="st4" d="M486.5,500.5s3.4,2.2,9.8.3"/>
          <path class="st4" d="M507.2,509s3.4,2.2,9.8.3"/>
          <path class="st4" d="M527,520.7s3.4,2.2,9.8.3"/>
        </g>
        <g>
          <ellipse class="st19" cx="498.9" cy="601.7" rx="21" ry="11.2"/>
          <g>
            <polygon class="st60" points="465.6 598.7 479.5 572.3 493.3 572.3 506.8 597.7 465.6 598.7"/>
            <ellipse class="st60" cx="486.4" cy="600.3" rx="21" ry="11.2"/>
            <g>
              <path class="st60" d="M493.3,558.1c0,2-3.1,3.7-6.9,3.7s-6.9-1.6-6.9-3.7,3.1-3.7,6.9-3.7,6.9,1.6,6.9,3.7Z"/>
              <path class="st60" d="M493.3,574.5c0,2-3.1,3.7-6.9,3.7s-6.9-1.6-6.9-3.7,3.1-3.7,6.9-3.7,6.9,1.6,6.9,3.7Z"/>
              <rect class="st60" x="479.5" y="558" width="13.8" height="16.9"/>
            </g>
            <ellipse class="st49" cx="486.3" cy="598.6" rx="15.1" ry="8"/>
            <path class="st49" d="M471.4,597.4l10-18.9c2.3-3.6,8.4-3.4,9.9,0l9.7,18.2-29.6.7Z"/>
            <path class="st60" d="M476.1,596.6h0c-.6-.3-.9-1-.6-1.6l4.8-10.4c.3-.6,1-.9,1.6-.6h0c.6.3.9,1,.6,1.6l-4.8,10.4c-.3.6-1,.9-1.6.6Z"/>
            <path class="st5" d="M482,561.3s2.9,1.9,8.3.3"/>
            <path class="st5" d="M482.1,558.2s.3-1.7,4-1.7,4.5,1.4,4.5,1.4"/>
            <path class="st55" d="M486.3,577c-.5,0-1,0-1.4,0-1,.2-1.7.7-1.7.7h0c-.5.3-.8.8-.8,1.2,0,1.1,1.8,2,3.9,2s3.9-.9,3.9-2-1.8-2-3.9-2Z"/>
          </g>
        </g>
        <g>
          <g>
            <path class="st30" d="M396.9,617.2l-45.9-23.4c-1.6-.8-1.4-2.4.5-3.5l63.2-36.7c1.9-1.1,4.8-1.3,6.5-.5l45.9,23.4c1.6.8,1.4,2.4-.5,3.5l-63.2,36.7c-1.9,1.1-4.8,1.3-6.5.5Z"/>
            <path class="st43" d="M464.9,575.8c-.2-.2-.4-.3-.6-.4l-45.9-23.4c-1.6-.8-4.6-.6-6.5.5l-63.2,36.7c-.2,0-.4.3-.6.4l-1,.5v1.4c.1.5.5.9,1.1,1.3l45.9,23.4c1.6.8,4.6.6,6.5-.5l63.2-36.7c1-.6,1.5-1.3,1.6-2v-1.1h-.5Z"/>
            <path class="st51" d="M394.1,614.9l-45.9-23.4c-1.6-.8-1.4-2.4.5-3.5l63.2-36.7c1.9-1.1,4.8-1.3,6.5-.5l45.9,23.4c1.6.8,1.4,2.4-.5,3.5l-63.2,36.7c-1.9,1.1-4.8,1.3-6.5.5Z"/>
            <polygon class="st46" points="396.9 611.1 352.8 588.6 416.2 552.8 460.3 575.2 396.9 611.1"/>
            <path class="st30" d="M449.4,566.7l-1.5-.8h0c1.8-1,1.8-2.6,0-3.5l-8.2-4.2c-1.8-.9-4.7-.8-6.4.2l-1-.5c-1.9-.9-4.9-.9-6.7.2h0c-1.9,1-1.9,2.7,0,3.6l17.1,8.7c1.9.9,4.9.9,6.7-.2h0c1.9-1,1.9-2.7,0-3.6h0Z"/>
            <path class="st45" d="M449.4,565.3l-1.5-.8h0c1.8-1,1.8-2.6,0-3.5l-8.2-4.2c-1.8-.9-4.7-.8-6.4.2l-1-.5c-1.9-.9-4.9-.9-6.7.2h0c-1.9,1-1.9,2.7,0,3.6l17.1,8.7c1.9.9,4.9.9,6.7-.2h0c1.9-1,1.9-2.7,0-3.6h0Z"/>
            <path class="st46" d="M444.7,565.1l-12.5-6.6c-.4-.2-.5-.8,0-1.1h0c.2,0,.5-.2.7,0l12.5,6.6c.4.2.5.8,0,1.1h0c-.2,0-.5.2-.7,0Z"/>
          </g>
          <line class="st11" x1="372.9" y1="580.7" x2="385.1" y2="587"/>
          <line class="st11" x1="368.5" y1="583.1" x2="402.4" y2="600.4"/>
          <line class="st11" x1="391.8" y1="569.8" x2="404" y2="576.1"/>
          <line class="st11" x1="387.4" y1="572.2" x2="421.3" y2="589.4"/>
          <line class="st11" x1="410.6" y1="558.8" x2="422.9" y2="565.1"/>
          <line class="st11" x1="406.3" y1="561.3" x2="440.2" y2="578.5"/>
        </g>
        <path class="st7" d="M131.2,499s-.8,2.4,3.2,4.5l288.3,153.4c6.3,3.3,13.3,5.2,20.4,5.5h0c8.9.4,17.7-1.8,25.4-6.2l115.4-65.9"/>
        <path class="st38" d="M357.5,629.2l1.8,168.6,65.6,35c4.4,2.3,8.6,3.8,12.7,4l-2.2-161-77.9-46.6h0Z"/>
        <path class="st7" d="M426.4,730.4l-51.4-28.3c-4-2.2-7.4-7.6-7.4-12v-27.6c0-4.4,3.3-6.1,7.4-3.9l51.4,28.3c4,2.2,7.4,7.6,7.4,12v27.6c0,4.4-3.3,6.1-7.4,3.9Z"/>
        <path class="st7" d="M426.4,813.9l-51.4-28.3c-4-2.2-7.4-7.6-7.4-12v-27.6c0-4.4,3.3-6.1,7.4-3.9l51.4,28.3c4,2.2,7.4,7.6,7.4,12v27.6c0,4.4-3.3,6.1-7.4,3.9Z"/>
        <line class="st7" x1="385.4" y1="675.7" x2="413.2" y2="690.8"/>
        <line class="st7" x1="385.4" y1="759.9" x2="413.2" y2="775"/>
        <line class="st7" x1="361.5" y1="714.8" x2="435.6" y2="755"/>
        <path class="st7" d="M357.6,634.4l65.1,34.4c6.3,3.3,13.3,5.2,20.4,5.5h2.8"/>
        <path class="st7" d="M359.3,789.6l63.4,33.7c6.3,3.3,13.3,5.2,20.4,5.5h0c8.9.4,17.7-1.8,25.4-6.2l128.8-76.1"/>
        <line class="st7" x1="144.8" y1="521.5" x2="131.8" y2="513.9"/>
        <line class="st7" x1="144.8" y1="675.6" x2="131.8" y2="668.1"/>
        <path class="st20" d="M241.6,776l27.5,5.7s11.3-6.6,7.1-17.4l-26.2-8.5-8.4,20.2h0Z"/>
        <path class="st42" d="M187.5,696.7h0c-3.3-.9-5.9-4.4-5.9-7.8v-83.5c0-3.3,2.7-5.3,5.9-4.4h0c3.3.9,5.9,4.4,5.9,7.8v83.5c0,3.3-2.7,5.3-5.9,4.4Z"/>
        <path class="st37" d="M213,631.6l-49.3-25.7c-3.3-1.7-6.1-6.5-6.1-10.5v-22c0-4,2.7-5.9,6.1-4.2l49.3,25.7c3.3,1.7,6.1,6.5,6.1,10.5v22c0,4-2.7,5.9-6.1,4.2Z"/>
        <path class="st7" d="M157.6,574l49.3,25.7c3.3,1.7,6.1,6.5,6.1,10.5v19"/>
      </g>
    </g>
  </g>
</svg>