<?xml version="1.0" encoding="UTF-8"?>
<svg xmlns="http://www.w3.org/2000/svg" xmlns:xlink="http://www.w3.org/1999/xlink" version="1.1" viewBox="0 0 3840 2160">
  <!-- Generator: Adobe Illustrator 29.1.0, SVG Export Plug-In . SVG Version: 2.1.0 Build 142)  -->
  <defs>
    <style>
      .st0, .st1, .st2, .st3, .st4, .st5, .st6, .st7, .st8, .st9, .st10, .st11, .st12, .st13, .st14, .st15, .st16, .st17, .st18, .st19, .st20 {
        fill: none;
      }

      .st21 {
        mask: url(#mask);
      }

      .st1 {
        opacity: .2;
      }

      .st1, .st2, .st3, .st4, .st5, .st6, .st7, .st8, .st9, .st22, .st10, .st11, .st12, .st13, .st14, .st15, .st16, .st17, .st18, .st23, .st19, .st20 {
        stroke-miterlimit: 10;
      }

      .st1, .st2, .st3, .st4, .st5, .st6, .st7, .st8, .st9, .st10, .st11, .st12, .st13, .st14, .st15, .st16, .st17, .st18, .st19, .st20 {
        stroke: #6721b4;
        stroke-width: 6px;
      }

      .st24 {
        filter: url(#luminosity-noclip);
      }

      .st2 {
        opacity: .2;
      }

      .st3 {
        opacity: .6;
      }

      .st4 {
        opacity: .8;
      }

      .st5 {
        opacity: .9;
      }

      .st25 {
        filter: url(#luminosity-noclip2);
      }

      .st6 {
        opacity: .3;
      }

      .st26 {
        isolation: isolate;
      }

      .st27 {
        mask: url(#mask-2);
      }

      .st28 {
        mask: url(#mask-3);
      }

      .st29 {
        mask: url(#mask-1);
      }

      .st7 {
        opacity: 0;
      }

      .st8 {
        opacity: .9;
      }

      .st30 {
        fill: #fff;
      }

      .st9 {
        opacity: .5;
      }

      .st22 {
        fill: #006db6;
        stroke: #006db6;
      }

      .st22, .st31, .st32 {
        mix-blend-mode: multiply;
      }

      .st22, .st23 {
        opacity: .1;
      }

      .st10 {
        opacity: .7;
      }

      .st11 {
        opacity: .1;
      }

      .st12 {
        opacity: .3;
      }

      .st13 {
        opacity: .4;
      }

      .st14 {
        opacity: .4;
      }

      .st15 {
        opacity: .6;
      }

      .st16 {
        opacity: .7;
      }

      .st31 {
        fill: url(#linear-gradient);
      }

      .st17 {
        opacity: .5;
      }

      .st23 {
        fill: #750014;
        stroke: #129a48;
      }

      .st32 {
        fill: url(#linear-gradient1);
      }

      .st19 {
        opacity: 0;
      }

      .st20 {
        opacity: .8;
      }

      .st33 {
        clip-path: url(#clippath);
      }
    </style>
    <filter id="luminosity-noclip" x="-216.6" y="-183.5" width="4377.2" height="2786.9" color-interpolation-filters="sRGB" filterUnits="userSpaceOnUse">
      <feFlood flood-color="#ffffff" result="bg"/>
      <feBlend in="SourceGraphic" in2="bg"/>
    </filter>
    <filter id="luminosity-noclip1" x="-216" y="-9272" width="4376" height="32766" color-interpolation-filters="sRGB" filterUnits="userSpaceOnUse">
      <feFlood flood-color="#ffffff" result="bg"/>
      <feBlend in="SourceGraphic" in2="bg"/>
    </filter>
    <mask id="mask-1" x="-216" y="-9272" width="4376" height="32766" maskUnits="userSpaceOnUse"/>
    <linearGradient id="linear-gradient" x1="1496.4" y1="1908.3" x2="2253.7" y2="596.7" gradientUnits="userSpaceOnUse">
      <stop offset="0" stop-color="#000"/>
      <stop offset="1" stop-color="#ffffff"/>
    </linearGradient>
    <mask id="mask" x="-216.6" y="-183.5" width="4377.2" height="2786.9" maskUnits="userSpaceOnUse">
      <g class="st24">
        <g class="st29">
          <path class="st31" d="M336-183s241.3,1185.3,1640,1296c935,74,1144-120,2184,616l-176,872s-257.3-1147.7-992-968c-924,226-2168,98-2568-416C28.7,709-216-127-216-127l552-56Z"/>
        </g>
      </g>
    </mask>
    <filter id="luminosity-noclip2" x="-360.5" y="696.3" width="4713" height="1657.3" color-interpolation-filters="sRGB" filterUnits="userSpaceOnUse">
      <feFlood flood-color="#ffffff" result="bg"/>
      <feBlend in="SourceGraphic" in2="bg"/>
    </filter>
    <filter id="luminosity-noclip3" x="-360" y="-9272" width="4712" height="32766" color-interpolation-filters="sRGB" filterUnits="userSpaceOnUse">
      <feFlood flood-color="#ffffff" result="bg"/>
      <feBlend in="SourceGraphic" in2="bg"/>
    </filter>
    <mask id="mask-3" x="-360" y="-9272" width="4712" height="32766" maskUnits="userSpaceOnUse"/>
    <linearGradient id="linear-gradient1" x1="1472.9" y1="2507.2" x2="2557.8" y2="628.1" gradientUnits="userSpaceOnUse">
      <stop offset="0" stop-color="#000"/>
      <stop offset="1" stop-color="#ffffff"/>
    </linearGradient>
    <mask id="mask-2" x="-360.5" y="696.3" width="4713" height="1657.3" maskUnits="userSpaceOnUse">
      <g class="st25">
        <g class="st28">
          <path class="st32" d="M-272,697s926,406,1408,383,1072-521,1888-168,496,809,1328,897v544s-800-56-1160-472-461-608-744-704c-348.5-118.2-880-88-1456,232s-1352,40-1352,40l88-752Z"/>
        </g>
      </g>
    </mask>
  </defs>
  <g class="st26">
    <g id="Layer_1">
      <g class="st33">
        <g class="st21">
          <path class="st23" d="M336-183s241.3,1185.3,1640,1296c935,74,1144-120,2184,616l-176,872s-257.3-1147.7-992-968c-924,226-2168,98-2568-416C28.7,709-216-127-216-127l552-56Z"/>
        </g>
        <g class="st27">
          <path class="st22" d="M-272,697s926,406,1408,383,1072-521,1888-168,496,809,1328,897v544s-800-56-1160-472-461-608-744-704c-348.5-118.2-880-88-1456,232s-1352,40-1352,40l88-752Z"/>
        </g>
        <g>
          <path class="st18" d="M-144-23S46.4,649.9,704,833c632,176,864-200,1488-112s736,1216,2088,1120"/>
          <path class="st8" d="M-144,76.1S49.4,686.9,709.9,858.3c627.8,165.1,854.5-200.1,1467.8-116.4,610.9,83.6,748.6,1184.6,2040,1139.2"/>
          <path class="st5" d="M-144,175.1S53,721.9,715.8,883.5c624.1,152.1,845-200.2,1447.6-120.8,597.9,79.3,761.3,1153.3,1992,1158.3"/>
          <path class="st4" d="M-144,274.2S56.2,758.1,721.7,908.8c620,140.4,835.4-200.3,1427.4-125.3,584.8,74.9,773.9,1121.9,1944,1177.5"/>
          <path class="st20" d="M-144,373.2S59.3,794.4,727.6,934.1c615.9,128.7,825.9-200.3,1407.2-129.7,571.8,70.5,786.5,1090.5,1896,1196.6"/>
          <path class="st10" d="M-144,472.3s206.4,358.5,877.5,487.1c611.7,117.2,816.4-200.4,1386.9-134.1,558.7,66.2,799.2,1059.2,1848,1215.8"/>
          <path class="st16" d="M-144,571.3s209.5,295.9,883.4,413.3c607.5,105.8,806.9-200.5,1366.7-138.5,545.7,61.8,811.8,1027.8,1800,1234.9"/>
          <path class="st3" d="M-144,670.4s212.5,233.5,889.3,339.5c603.3,94.5,797.4-200.6,1346.5-142.9,532.6,57.4,824.4,996.4,1752,1254.1"/>
          <path class="st15" d="M-144,769.4s215.5,171.2,895.2,265.7c599.1,83.3,787.8-200.7,1326.3-147.4,519.6,53.1,837.1,965.1,1704,1273.3"/>
          <path class="st17" d="M-144,868.5s218.4,109,901.1,191.9c594.8,72.2,778.3-200.8,1306.1-151.8,506.5,48.7,849.7,933.7,1656,1292.4"/>
          <path class="st9" d="M-144,967.5s221.4,47,906.9,118.1c590.5,61.3,768.8-200.8,1285.9-156.2,493.5,44.3,862.3,902.3,1608,1311.6"/>
          <path class="st14" d="M-144,1066.6s224.3-14.9,912.8,44.3c586.1,50.4,759.3-200.9,1265.7-160.6,480.4,39.9,874.9,870.9,1560,1330.7"/>
          <path class="st13" d="M-144,1165.6s227.2-76.7,918.7-29.5c581.8,39.7,749.8-201,1245.5-165.1,467.4,35.6,887.6,839.6,1512,1349.9"/>
          <path class="st12" d="M-144,1264.7s230.1-138.3,924.6-103.3c577.5,29.1,740.3-201.1,1225.3-169.5,454.3,31.2,900.2,808.2,1464,1369.1"/>
          <path class="st6" d="M-144,1363.7s233-199.8,930.5-177.1c573.2,18.7,730.7-201.2,1205.1-173.9,441.3,26.8,912.8,776.8,1416,1388.2"/>
          <path class="st1" d="M-144,1462.8s236-261.1,936.4-250.8c568.9,8.3,721.2-201.3,1184.8-178.3,428.2,22.5,925.5,745.5,1368,1407.4"/>
          <path class="st2" d="M-144,1561.8s239-329.1,942.3-324.6c564.6,3.6,711.7-201.3,1164.6-182.7,415.2,18.1,938.1,714.1,1320,1426.5"/>
          <path class="st11" d="M-144,1660.9s241.9-383.2,948.2-398.4c560.4-12.1,702.2-201.4,1144.4-187.2,402.1,13.7,950.7,682.7,1272,1445.7"/>
          <path class="st7" d="M-144,1759.9s245-442.8,954.1-472.2c556.2-21.1,692.7-201.5,1124.2-191.6,389.1,9.4,963.4,651.4,1224,1464.8"/>
          <path class="st19" d="M-144,1859s248.1-504.7,960-546c552-32,683.1-201.6,1104-196,376,5,976,620,1176,1484"/>
        </g>
      </g>
    </g>
  </g>
</svg>