<?xml version="1.0" encoding="UTF-8"?>
<svg id="Layer_1" xmlns="http://www.w3.org/2000/svg" version="1.1" viewBox="0 0 322.4 58.4">
  <!-- Generator: Adobe Illustrator 29.1.0, SVG Export Plug-In . SVG Version: 2.1.0 Build 142)  -->
  <defs>
    <style>
      .st0 {
        fill: #ef7934;
      }

      .st1 {
        fill: #206390;
      }

      .st2 {
        fill: #a6b8cf;
      }

      .st3 {
        fill: #fff;
      }
    </style>
  </defs>
  <g>
    <path class="st1" d="M79.6,2.4h2.8v6.2l6.9-6.2h3.9l-6.3,5.5,6.7,8h-3.8l-5.1-6.2-2.3,2v4.2h-2.8V2.4Z"/>
    <path class="st1" d="M94.8,9.1c0-3.8,2.2-7.1,7.9-7.1s7.9,3.3,7.9,7.1-2.2,7.1-7.9,7.1-7.9-3.3-7.9-7.1ZM107.7,9.1c0-3-1.8-5-5-5s-5,2-5,5,1.8,5,5,5,5-2,5-5Z"/>
    <path class="st1" d="M124.4,7.4c-.3-2-2-3.2-4.3-3.2s-4.5,1.7-4.5,5.2,1.9,4.7,4.7,4.7,3.9-2,4.1-3.4h3.1c-.4,2.7-2.1,5.5-7.7,5.5s-7.2-3.3-7.2-7.1,2.2-7.1,7.5-7.1,7,2.4,7.3,5.4h-3.1Z"/>
    <path class="st1" d="M130.4,2.4h2.8v5.2h8.3V2.4h2.8v13.5h-2.8v-6.1h-8.3v6.1h-2.8V2.4Z"/>
    <path class="st1" d="M155.1,2.4h2.8v13.5h-2.8V2.4Z"/>
    <path class="st1" d="M161.3,2.4h3.2l8,10.1h0V2.4h2.7v13.5h-3.2l-8.1-10.1h0v10.1h-2.7V2.4Z"/>
    <path class="st1" d="M184,2c2.1,0,6.2.4,6.6,4.3h-3.1c0-1-1-2.2-3.4-2.2s-3.1.6-3.1,1.8c0,3.2,10,.1,10,5.9s-3.6,4.4-6.5,4.4c-4.8,0-6.8-1.9-6.8-4.7h3.1c0,1.8,1.5,2.6,3.9,2.6s3.3-.5,3.3-2c0-3.3-9.9-.4-9.9-6s2.7-4.2,5.9-4.2Z"/>
    <path class="st1" d="M197.1,4.5h-5.1v-2.1h12.9v2.1h-5.1v11.3h-2.8V4.5Z"/>
    <path class="st1" d="M207,2.4h2.8v13.5h-2.8V2.4Z"/>
    <path class="st1" d="M216.9,4.5h-5.1v-2.1h12.9v2.1h-5.1v11.3h-2.8V4.5Z"/>
    <path class="st1" d="M226.7,2.4h2.8v7.6c0,1.9,0,4.1,3.8,4.1s3.8-2.3,3.8-4.1V2.4h2.8v7.7c0,2.2,0,6.2-6.6,6.2s-6.6-3.9-6.6-6.2V2.4Z"/>
    <path class="st1" d="M246.8,4.5h-5.1v-2.1h12.9v2.1h-5.1v11.3h-2.8V4.5Z"/>
    <path class="st1" d="M256.8,2.4h11.7v2.1h-8.9v3.4h8.5v2.1h-8.5v3.7h9v2.1h-11.8V2.4Z"/>
  </g>
  <path class="st3" d="M65.1,56c-4.7-4.6-8-14.9-8-26.8s3.3-22.2,8-26.8V0h-8c-2.9,6.7-4.7,17.3-4.7,29.2s1.8,22.5,4.7,29.2h8v-2.4Z"/>
  <path class="st1" d="M57.1,29.2c0,11.9,3.3,22.2,8,26.8V2.4c-4.7,4.6-8,14.9-8,26.8"/>
  <path class="st1" d="M8,29.2C8,17.3,4.7,7.1,0,2.4v53.6c4.7-4.6,8-14.9,8-26.8"/>
  <path class="st1" d="M57.1,0H8c2.9,6.7,4.7,17.3,4.7,29.2s-1.8,22.5-4.7,29.2h49.1c-2.9-6.7-4.7-17.3-4.7-29.2S54.2,6.7,57.1,0"/>
  <path class="st3" d="M8,0H0v2.4c4.7,4.6,8,14.9,8,26.8s-3.3,22.2-8,26.8v2.4h8c2.9-6.7,4.7-17.3,4.7-29.2S10.8,6.7,8,0"/>
  <path class="st3" d="M65.1,56c-4.7-4.6-8-14.9-8-26.8s3.3-22.2,8-26.8V0h-8c-2.9,6.7-4.7,17.3-4.7,29.2s1.8,22.5,4.7,29.2h8v-2.4Z"/>
  <g>
    <polygon class="st3" points="42 8 20.6 29.5 41.6 50.5 43.8 48.4 24.9 29.5 44.2 10.2 42 8"/>
    <path class="st0" d="M28.4,29.5c0,3.1-2.5,5.7-5.7,5.7s-5.7-2.5-5.7-5.7,2.5-5.7,5.7-5.7,5.7,2.5,5.7,5.7"/>
    <path class="st2" d="M48.4,49.6c0,3.1-2.5,5.7-5.7,5.7s-5.7-2.5-5.7-5.7,2.5-5.7,5.7-5.7,5.7,2.5,5.7,5.7"/>
    <path class="st3" d="M48.8,9.1c0,3.1-2.5,5.7-5.7,5.7s-5.7-2.5-5.7-5.7,2.5-5.7,5.7-5.7,5.7,2.5,5.7,5.7"/>
  </g>
  <g>
    <path class="st1" d="M81.5,27.9h-2.1v-1.9h2.1v-1.3c0-1.1.3-2.6,3-2.6s1.7,0,2.3,0v1.9c-.3,0-.8,0-1.3,0-1.2,0-1.4.3-1.4,1.2v.8h2.7v1.9h-2.7v8.1h-2.6v-8.1Z"/>
    <path class="st1" d="M93.6,25.6c4.5,0,6.2,2.6,6.2,5.4s-1.7,5.4-6.2,5.4-6.2-2.6-6.2-5.4,1.7-5.4,6.2-5.4ZM93.6,34.4c2.5,0,3.5-1.6,3.5-3.4s-.9-3.4-3.5-3.4-3.5,1.6-3.5,3.4.9,3.4,3.5,3.4Z"/>
    <path class="st1" d="M101.6,26h2.6v1.9h0c.7-1.1,1.8-2.2,3.8-2.2s.7,0,1,0v2.6c-.7-.2-1.2-.2-1.7-.2-1.3,0-3.2.7-3.2,3v4.8h-2.6v-10Z"/>
    <path class="st1" d="M117.7,22.5h2.8v13.5h-2.8v-13.5Z"/>
    <path class="st1" d="M123.1,26h2.6v1.5h0c.8-1.1,2.2-1.8,3.9-1.8s4.2.8,4.2,3.5v6.8h-2.6v-6c0-1.1-.4-2.3-2.5-2.3s-3.1.8-3.1,2.9v5.4h-2.6v-10Z"/>
    <path class="st1" d="M137.1,27.9h-2.1v-1.9h2.1v-3.1h2.6v3.1h2.7v1.9h-2.7v4.6c0,1.1,0,1.8.9,1.8s1.2,0,1.9,0v1.9c-.7,0-1.2.2-2,.2-3.2,0-3.4-1.1-3.4-3v-5.3Z"/>
    <path class="st1" d="M146.5,31.7c0,1.1.8,2.8,3.4,2.8s2.5-.6,3-1.4h2.8c-.6,1.1-1.9,3.3-5.7,3.3s-6.2-2.6-6.2-5.3,2.5-5.5,6-5.5,6.1,2.7,6.1,5.7v.4h-9.4ZM153.2,30c-.3-2-2.1-2.6-3.4-2.6s-2.9.6-3.3,2.6h6.7Z"/>
    <path class="st1" d="M169.7,26v9.7c0,2.4-1.5,4.5-5.9,4.5s-5.6-.7-5.9-3.3h2.7c.3,1.3,1.5,1.5,3.1,1.5,3,0,3.4-1.6,3.4-2.9v-1.2h0c-1.2,1.2-2.5,1.6-4.1,1.6-2.6,0-5.6-1.3-5.6-5.1s1.7-5.1,5.5-5.1,3.5.6,4.1,1.7h0v-1.5h2.6ZM163.7,33.9c2,0,3.4-1.3,3.4-3.1s-2.2-3-3.6-3c-1.9,0-3.4,1.3-3.4,3.1s.9,3.1,3.6,3.1Z"/>
    <path class="st1" d="M172.1,26h2.6v1.9h0c.7-1.1,1.8-2.2,3.8-2.2s.7,0,1,0v2.6c-.7-.2-1.2-.2-1.7-.2-1.3,0-3.2.7-3.2,3v4.8h-2.6v-10Z"/>
    <path class="st1" d="M191.7,33.7c0,.5.4.6.6.6.2,0,.6,0,.8,0v1.8c-.5,0-1,.2-1.8.2-1.7,0-1.9-.9-2-1.3-.5.5-1.8,1.4-4.7,1.4s-4.1-1.2-4.1-3.1,2.8-3,4.5-3.1c3.7-.4,4.1-.5,4.1-1.3,0-1.1-1.3-1.4-2.8-1.4s-2.6.5-2.7,1.7h-2.5c.4-2.6,2.3-3.4,5.3-3.4,5.2,0,5.4,2.1,5.4,3.4v4.7ZM189.1,31c-.8.3-1.6.4-3.4.6-2,.2-2.4.7-2.4,1.5,0,1.3,1.2,1.6,2.1,1.6,1.4,0,3.8-.5,3.8-2.7v-1Z"/>
    <path class="st1" d="M195.3,27.9h-2.1v-1.9h2.1v-3.1h2.6v3.1h2.7v1.9h-2.7v4.6c0,1.1,0,1.8.9,1.8s1.2,0,1.9,0v1.9c-.7,0-1.2.2-2,.2-3.2,0-3.4-1.1-3.4-3v-5.3Z"/>
    <path class="st1" d="M202.4,22.3h2.6v2.1h-2.6v-2.1ZM202.4,26h2.6v10h-2.6v-10Z"/>
    <path class="st1" d="M206.3,26h2.9l3,7.4,3.1-7.4h2.9l-4.6,10h-2.8l-4.6-10Z"/>
    <path class="st1" d="M221.8,31.7c0,1.1.8,2.8,3.4,2.8s2.5-.6,3-1.4h2.8c-.6,1.1-1.9,3.3-5.7,3.3s-6.2-2.6-6.2-5.3,2.5-5.5,6-5.5,6.1,2.7,6.1,5.7v.4h-9.4ZM228.5,30c-.3-2-2.1-2.6-3.4-2.6s-2.9.6-3.3,2.6h6.7Z"/>
    <path class="st1" d="M251.4,27.5c-.3-2-2-3.2-4.3-3.2s-4.5,1.7-4.5,5.2,1.9,4.7,4.7,4.7,3.9-2,4.1-3.4h3.1c-.4,2.7-2.1,5.5-7.7,5.5s-7.2-3.3-7.2-7.1,2.2-7.1,7.5-7.1,7,2.4,7.3,5.4h-3.1Z"/>
    <path class="st1" d="M267.3,33.7c0,.5.4.6.6.6.2,0,.6,0,.8,0v1.8c-.5,0-1,.2-1.8.2-1.7,0-1.9-.9-2-1.3-.5.5-1.8,1.4-4.7,1.4s-4.1-1.2-4.1-3.1,2.8-3,4.5-3.1c3.7-.4,4.1-.5,4.1-1.3,0-1.1-1.3-1.4-2.8-1.4s-2.6.5-2.7,1.7h-2.5c.4-2.6,2.3-3.4,5.3-3.4,5.2,0,5.4,2.1,5.4,3.4v4.7ZM264.7,31c-.8.3-1.6.4-3.4.6-2,.2-2.4.7-2.4,1.5,0,1.3,1.2,1.6,2.1,1.6,1.4,0,3.8-.5,3.8-2.7v-1Z"/>
    <path class="st1" d="M270.1,26h2.6v1.5h0c.8-1.1,2.2-1.8,3.9-1.8s4.2.8,4.2,3.5v6.8h-2.6v-6c0-1.1-.4-2.3-2.5-2.3s-3.1.8-3.1,2.9v5.4h-2.6v-10Z"/>
    <path class="st1" d="M291.7,29.5c-.2-1-1.3-1.9-2.8-1.9-2.4,0-3.5,1.6-3.5,3.4s.9,3.4,3.2,3.4,2.6-.8,3.1-2.2h2.7c-.6,4.1-4.8,4.2-5.5,4.2-4.5,0-6.2-2.6-6.2-5.4s2.3-5.4,6.2-5.4,4.9.5,5.5,3.9h-2.7Z"/>
    <path class="st1" d="M298.7,31.7c0,1.1.8,2.8,3.4,2.8s2.5-.6,3-1.4h2.8c-.6,1.1-1.9,3.3-5.7,3.3s-6.2-2.6-6.2-5.3,2.5-5.5,6-5.5,6.1,2.7,6.1,5.7v.4h-9.4ZM305.4,30c-.3-2-2.1-2.6-3.4-2.6s-2.9.6-3.3,2.6h6.7Z"/>
    <path class="st1" d="M310.1,26h2.6v1.9h0c.7-1.1,1.8-2.2,3.8-2.2s.7,0,1,0v2.6c-.7-.2-1.2-.2-1.7-.2-1.3,0-3.2.7-3.2,3v4.8h-2.6v-10Z"/>
    <path class="st1" d="M81,42.7h8.5c3.4,0,4.5,1.6,4.5,3.7s-1,2.8-2.2,3.2h0c1.6.4,2,1.8,2,3.7s0,2.1.6,2.9h-3.1c-.2-.4-.3-1.1-.3-2,0-1.9-.3-3.3-2.3-3.3h-4.8v5.3h-2.8v-13.5ZM88.7,48.7c1.6,0,2.4-.5,2.4-2s-.9-1.9-2.4-1.9h-4.9v3.9h4.9Z"/>
    <path class="st1" d="M98.6,51.8c0,1.1.8,2.8,3.4,2.8s2.5-.6,3-1.4h2.8c-.6,1.1-1.9,3.3-5.7,3.3s-6.2-2.6-6.2-5.3,2.5-5.5,6-5.5,6.1,2.7,6.1,5.7v.4h-9.4ZM105.3,50.1c-.3-2-2.1-2.6-3.4-2.6s-2.9.6-3.3,2.6h6.7Z"/>
    <path class="st1" d="M112.3,53c0,1.5,1.8,1.7,2.8,1.7s2.7-.3,2.7-1.3-.4-1-3.2-1.4c-3.1-.4-4.7-.8-4.7-3.1s3.3-3.2,5-3.2,5.3.2,5.4,3.4h-2.7c-.2-1.5-1.9-1.7-2.8-1.7-1.5,0-2.3.6-2.3,1.1,0,.8.2.9,2.8,1.3,3.3.5,5.4.8,5.4,3.1s-2.4,3.4-5.5,3.4-5.5-.5-5.6-3.5h2.8Z"/>
    <path class="st1" d="M124.8,51.8c0,1.1.8,2.8,3.4,2.8s2.5-.6,3-1.4h2.8c-.6,1.1-1.9,3.3-5.7,3.3s-6.2-2.6-6.2-5.3,2.5-5.5,6-5.5,6.1,2.7,6.1,5.7v.4h-9.4ZM131.5,50.1c-.3-2-2.1-2.6-3.4-2.6s-2.9.6-3.3,2.6h6.7Z"/>
    <path class="st1" d="M146.9,53.8c0,.5.4.6.6.6.2,0,.6,0,.8,0v1.8c-.5,0-1,.2-1.8.2-1.7,0-1.9-.9-2-1.3-.5.5-1.8,1.4-4.7,1.4s-4.1-1.2-4.1-3.1,2.8-3,4.5-3.1c3.7-.4,4.1-.5,4.1-1.3,0-1.1-1.3-1.4-2.8-1.4s-2.6.5-2.7,1.7h-2.5c.4-2.6,2.3-3.4,5.3-3.4,5.2,0,5.4,2.1,5.4,3.4v4.7ZM144.3,51.1c-.8.3-1.6.4-3.4.6-2,.2-2.4.7-2.4,1.5,0,1.3,1.2,1.6,2.1,1.6,1.4,0,3.8-.5,3.8-2.7v-1Z"/>
    <path class="st1" d="M149.7,46.1h2.6v1.9h0c.7-1.1,1.8-2.2,3.8-2.2s.7,0,1,0v2.6c-.7-.2-1.2-.2-1.7-.2-1.3,0-3.2.7-3.2,3v4.8h-2.6v-10Z"/>
    <path class="st1" d="M167.1,49.6c-.2-1-1.3-1.9-2.8-1.9-2.4,0-3.5,1.6-3.5,3.4s.9,3.4,3.2,3.4,2.6-.8,3.1-2.2h2.7c-.6,4.1-4.8,4.2-5.5,4.2-4.5,0-6.2-2.6-6.2-5.4s2.3-5.4,6.2-5.4,4.9.5,5.5,3.9h-2.7Z"/>
    <path class="st1" d="M171.7,42.4h2.6v5.2h0c.8-1.1,2.2-1.8,3.9-1.8s4.2.8,4.2,3.5v6.8h-2.6v-6c0-1.1-.4-2.3-2.5-2.3s-3.1.8-3.1,2.9v5.4h-2.6v-13.7Z"/>
    <path class="st1" d="M200.1,53.8c0,.5.4.6.6.6.2,0,.6,0,.8,0v1.8c-.5,0-1,.2-1.8.2-1.7,0-1.9-.9-2-1.3-.5.5-1.8,1.4-4.7,1.4s-4.1-1.2-4.1-3.1,2.8-3,4.5-3.1c3.7-.4,4.1-.5,4.1-1.3,0-1.1-1.3-1.4-2.8-1.4s-2.6.5-2.7,1.7h-2.5c.4-2.6,2.3-3.4,5.3-3.4,5.2,0,5.4,2.1,5.4,3.4v4.7ZM197.5,51.1c-.8.3-1.6.4-3.4.6-2,.2-2.4.7-2.4,1.5,0,1.3,1.2,1.6,2.1,1.6,1.4,0,3.8-.5,3.8-2.7v-1Z"/>
    <path class="st1" d="M203.6,48h-2.1v-1.9h2.1v-3.1h2.6v3.1h2.7v1.9h-2.7v4.6c0,1.1,0,1.8.9,1.8s1.2,0,1.9,0v1.9c-.7,0-1.2.2-2,.2-3.2,0-3.4-1.1-3.4-3v-5.3Z"/>
    <path class="st1" d="M217.8,42.7h4.1l4.7,10.4,4.7-10.4h4v13.5h-2.7v-11.1c.1,0,0,0,0,0l-5,11.1h-2.4l-4.9-11.1h0v11.1c.1,0-2.5,0-2.5,0v-13.5Z"/>
    <path class="st1" d="M238.3,42.7h2.8v13.5h-2.8v-13.5Z"/>
    <path class="st1" d="M247.7,44.8h-5.1v-2.1h12.9v2.1h-5.1v11.3h-2.8v-11.3Z"/>
  </g>
</svg>